<svg xmlns="http://www.w3.org/2000/svg" xmlns:xlink="http://www.w3.org/1999/xlink" viewBox="0 0 118 118">
  <defs>
    <clipPath id="hybrid_svg__b">
      <path d="M0 0h118v118H0z"/>
    </clipPath>
    <clipPath id="hybrid_svg__c">
      <path d="M0 0h118v118H0z"/>
    </clipPath>
    <clipPath id="hybrid_svg__d">
      <path d="M0 0h118v118H0z"/>
    </clipPath>
    <clipPath id="hybrid_svg__e">
      <path d="M0 0h118v118H0z"/>
    </clipPath>
    <clipPath id="hybrid_svg__f">
      <path d="M0 0h118v118H0z"/>
    </clipPath>
    <clipPath id="hybrid_svg__g">
      <path d="M0 0h118v118H0z"/>
    </clipPath>
    <clipPath id="hybrid_svg__h">
      <path d="M0 0h118v118H0z"/>
    </clipPath>
    <clipPath id="hybrid_svg__i">
      <path d="M0 0h118v118H0z"/>
    </clipPath>
    <clipPath id="hybrid_svg__j">
      <path d="M0 0h118v118H0z"/>
    </clipPath>
    <clipPath id="hybrid_svg__k">
      <path d="M0 0h118v118H0z"/>
    </clipPath>
    <clipPath id="hybrid_svg__l">
      <path d="M0 0h118v118H0z"/>
    </clipPath>
    <clipPath id="hybrid_svg__m">
      <path d="M0 0h118v118H0z"/>
    </clipPath>
    <clipPath id="hybrid_svg__n">
      <path d="M0 0h118v118H0z"/>
    </clipPath>
    <clipPath id="hybrid_svg__o">
      <path d="M0 0h118v118H0z"/>
    </clipPath>
    <clipPath id="hybrid_svg__p">
      <path d="M0 0h118v118H0z"/>
    </clipPath>
    <clipPath id="hybrid_svg__q">
      <path d="M0 0h118v118H0z"/>
    </clipPath>
    <clipPath id="hybrid_svg__r">
      <path d="M0 0h118v118H0z"/>
    </clipPath>
    <clipPath id="hybrid_svg__s">
      <path d="M0 0h118v118H0z"/>
    </clipPath>
    <clipPath id="hybrid_svg__t">
      <path d="M0 0h118v118H0z"/>
    </clipPath>
    <clipPath id="hybrid_svg__u">
      <path d="M0 0h118v118H0z"/>
    </clipPath>
    <clipPath id="hybrid_svg__v">
      <path d="M0 0h118v118H0z"/>
    </clipPath>
    <clipPath id="hybrid_svg__w">
      <path d="M0 0h118v118H0z"/>
    </clipPath>
    <clipPath id="hybrid_svg__x">
      <path d="M0 0h118v118H0z"/>
    </clipPath>
    <clipPath id="hybrid_svg__y">
      <path d="M0 0h118v118H0z"/>
    </clipPath>
    <clipPath id="hybrid_svg__z">
      <path d="M0 0h118v118H0z"/>
    </clipPath>
    <clipPath id="hybrid_svg__A">
      <path d="M0 0h118v118H0z"/>
    </clipPath>
    <clipPath id="hybrid_svg__B">
      <path d="M0 0h118v118H0z"/>
    </clipPath>
    <clipPath id="hybrid_svg__C">
      <path d="M0 0h118v118H0z"/>
    </clipPath>
    <clipPath id="hybrid_svg__D">
      <path d="M0 0h118v118H0z"/>
    </clipPath>
    <clipPath id="hybrid_svg__E">
      <path d="M0 0h118v118H0z"/>
    </clipPath>
    <clipPath id="hybrid_svg__F">
      <path d="M0 0h118v118H0z"/>
    </clipPath>
    <clipPath id="hybrid_svg__G">
      <path d="M0 0h118v118H0z"/>
    </clipPath>
    <clipPath id="hybrid_svg__H">
      <path d="M0 0h118v118H0z"/>
    </clipPath>
    <clipPath id="hybrid_svg__I">
      <path d="M0 0h118v118H0z"/>
    </clipPath>
    <clipPath id="hybrid_svg__J">
      <path d="M0 0h118v118H0z"/>
    </clipPath>
    <clipPath id="hybrid_svg__K">
      <path d="M0 0h118v118H0z"/>
    </clipPath>
    <clipPath id="hybrid_svg__L">
      <path d="M0 0h118v118H0z"/>
    </clipPath>
    <clipPath id="hybrid_svg__M">
      <path d="M0 0h118v118H0z"/>
    </clipPath>
    <clipPath id="hybrid_svg__N">
      <path d="M0 0h118v118H0z"/>
    </clipPath>
    <clipPath id="hybrid_svg__O">
      <path d="M0 0h118v118H0z"/>
    </clipPath>
    <clipPath id="hybrid_svg__P">
      <path d="M0 0h118v118H0z"/>
    </clipPath>
    <clipPath id="hybrid_svg__Q">
      <path d="M0 0h118v118H0z"/>
    </clipPath>
    <clipPath id="hybrid_svg__R">
      <path d="M0 0h118v118H0z"/>
    </clipPath>
    <clipPath id="hybrid_svg__S">
      <path d="M0 0h118v118H0z"/>
    </clipPath>
    <clipPath id="hybrid_svg__T">
      <path d="M0 0h118v118H0z"/>
    </clipPath>
    <mask id="hybrid_svg__V">
      <g filter="url(#hybrid_svg__a)">
        <path d="M0 0h118v118H0z" style="fill:#000;fill-opacity:.976471;stroke:none"/>
      </g>
    </mask>
    <mask id="hybrid_svg__X">
      <g filter="url(#hybrid_svg__a)">
        <path d="M0 0h118v118H0z" style="fill:#000;fill-opacity:.984314;stroke:none"/>
      </g>
    </mask>
    <mask id="hybrid_svg__Z">
      <g filter="url(#hybrid_svg__a)">
        <path d="M0 0h118v118H0z" style="fill:#000;fill-opacity:.00392157;stroke:none"/>
      </g>
    </mask>
    <mask id="hybrid_svg__ab">
      <g filter="url(#hybrid_svg__a)">
        <path d="M0 0h118v118H0z" style="fill:#000;fill-opacity:.00392157;stroke:none"/>
      </g>
    </mask>
    <mask id="hybrid_svg__ad">
      <g filter="url(#hybrid_svg__a)">
        <path d="M0 0h118v118H0z" style="fill:#000;fill-opacity:.00392157;stroke:none"/>
      </g>
    </mask>
    <mask id="hybrid_svg__af">
      <g filter="url(#hybrid_svg__a)">
        <path d="M0 0h118v118H0z" style="fill:#000;fill-opacity:.00392157;stroke:none"/>
      </g>
    </mask>
    <mask id="hybrid_svg__ah">
      <g filter="url(#hybrid_svg__a)">
        <path d="M0 0h118v118H0z" style="fill:#000;fill-opacity:.00392157;stroke:none"/>
      </g>
    </mask>
    <mask id="hybrid_svg__aj">
      <g filter="url(#hybrid_svg__a)">
        <path d="M0 0h118v118H0z" style="fill:#000;fill-opacity:.988235;stroke:none"/>
      </g>
    </mask>
    <mask id="hybrid_svg__al">
      <g filter="url(#hybrid_svg__a)">
        <path d="M0 0h118v118H0z" style="fill:#000;fill-opacity:.992157;stroke:none"/>
      </g>
    </mask>
    <mask id="hybrid_svg__an">
      <g filter="url(#hybrid_svg__a)">
        <path d="M0 0h118v118H0z" style="fill:#000;fill-opacity:.988235;stroke:none"/>
      </g>
    </mask>
    <mask id="hybrid_svg__ap">
      <g filter="url(#hybrid_svg__a)">
        <path d="M0 0h118v118H0z" style="fill:#000;fill-opacity:.968627;stroke:none"/>
      </g>
    </mask>
    <mask id="hybrid_svg__ar">
      <g filter="url(#hybrid_svg__a)">
        <path d="M0 0h118v118H0z" style="fill:#000;fill-opacity:.976471;stroke:none"/>
      </g>
    </mask>
    <mask id="hybrid_svg__at">
      <g filter="url(#hybrid_svg__a)">
        <path d="M0 0h118v118H0z" style="fill:#000;fill-opacity:.972549;stroke:none"/>
      </g>
    </mask>
    <mask id="hybrid_svg__av">
      <g filter="url(#hybrid_svg__a)">
        <path d="M0 0h118v118H0z" style="fill:#000;fill-opacity:.952941;stroke:none"/>
      </g>
    </mask>
    <mask id="hybrid_svg__ax">
      <g filter="url(#hybrid_svg__a)">
        <path d="M0 0h118v118H0z" style="fill:#000;fill-opacity:.941176;stroke:none"/>
      </g>
    </mask>
    <mask id="hybrid_svg__az">
      <g filter="url(#hybrid_svg__a)">
        <path d="M0 0h118v118H0z" style="fill:#000;fill-opacity:.00392157;stroke:none"/>
      </g>
    </mask>
    <mask id="hybrid_svg__aB">
      <g filter="url(#hybrid_svg__a)">
        <path d="M0 0h118v118H0z" style="fill:#000;fill-opacity:.992157;stroke:none"/>
      </g>
    </mask>
    <mask id="hybrid_svg__aD">
      <g filter="url(#hybrid_svg__a)">
        <path d="M0 0h118v118H0z" style="fill:#000;fill-opacity:.996078;stroke:none"/>
      </g>
    </mask>
    <mask id="hybrid_svg__aF">
      <g filter="url(#hybrid_svg__a)">
        <path d="M0 0h118v118H0z" style="fill:#000;fill-opacity:.00392157;stroke:none"/>
      </g>
    </mask>
    <mask id="hybrid_svg__aH">
      <g filter="url(#hybrid_svg__a)">
        <path d="M0 0h118v118H0z" style="fill:#000;fill-opacity:.921569;stroke:none"/>
      </g>
    </mask>
    <mask id="hybrid_svg__aJ">
      <g filter="url(#hybrid_svg__a)">
        <path d="M0 0h118v118H0z" style="fill:#000;fill-opacity:.980392;stroke:none"/>
      </g>
    </mask>
    <mask id="hybrid_svg__aL">
      <g filter="url(#hybrid_svg__a)">
        <path d="M0 0h118v118H0z" style="fill:#000;fill-opacity:.945098;stroke:none"/>
      </g>
    </mask>
    <mask id="hybrid_svg__aN">
      <g filter="url(#hybrid_svg__a)">
        <path d="M0 0h118v118H0z" style="fill:#000;fill-opacity:.976471;stroke:none"/>
      </g>
    </mask>
    <mask id="hybrid_svg__aP">
      <g filter="url(#hybrid_svg__a)">
        <path d="M0 0h118v118H0z" style="fill:#000;fill-opacity:.945098;stroke:none"/>
      </g>
    </mask>
    <mask id="hybrid_svg__aR">
      <g filter="url(#hybrid_svg__a)">
        <path d="M0 0h118v118H0z" style="fill:#000;fill-opacity:.980392;stroke:none"/>
      </g>
    </mask>
    <mask id="hybrid_svg__aT">
      <g filter="url(#hybrid_svg__a)">
        <path d="M0 0h118v118H0z" style="fill:#000;fill-opacity:.933333;stroke:none"/>
      </g>
    </mask>
    <mask id="hybrid_svg__aV">
      <g filter="url(#hybrid_svg__a)">
        <path d="M0 0h118v118H0z" style="fill:#000;fill-opacity:.992157;stroke:none"/>
      </g>
    </mask>
    <mask id="hybrid_svg__aX">
      <g filter="url(#hybrid_svg__a)">
        <path d="M0 0h118v118H0z" style="fill:#000;fill-opacity:.980392;stroke:none"/>
      </g>
    </mask>
    <mask id="hybrid_svg__aZ">
      <g filter="url(#hybrid_svg__a)">
        <path d="M0 0h118v118H0z" style="fill:#000;fill-opacity:.980392;stroke:none"/>
      </g>
    </mask>
    <mask id="hybrid_svg__bb">
      <g filter="url(#hybrid_svg__a)">
        <path d="M0 0h118v118H0z" style="fill:#000;fill-opacity:.00392157;stroke:none"/>
      </g>
    </mask>
    <mask id="hybrid_svg__bd">
      <g filter="url(#hybrid_svg__a)">
        <path d="M0 0h118v118H0z" style="fill:#000;fill-opacity:.00784314;stroke:none"/>
      </g>
    </mask>
    <mask id="hybrid_svg__bf">
      <g filter="url(#hybrid_svg__a)">
        <path d="M0 0h118v118H0z" style="fill:#000;fill-opacity:.00392157;stroke:none"/>
      </g>
    </mask>
    <mask id="hybrid_svg__bh">
      <g filter="url(#hybrid_svg__a)">
        <path d="M0 0h118v118H0z" style="fill:#000;fill-opacity:.00392157;stroke:none"/>
      </g>
    </mask>
    <mask id="hybrid_svg__bj">
      <g filter="url(#hybrid_svg__a)">
        <path d="M0 0h118v118H0z" style="fill:#000;fill-opacity:.00392157;stroke:none"/>
      </g>
    </mask>
    <mask id="hybrid_svg__bl">
      <g filter="url(#hybrid_svg__a)">
        <path d="M0 0h118v118H0z" style="fill:#000;fill-opacity:.00392157;stroke:none"/>
      </g>
    </mask>
    <mask id="hybrid_svg__bn">
      <g filter="url(#hybrid_svg__a)">
        <path d="M0 0h118v118H0z" style="fill:#000;fill-opacity:.00392157;stroke:none"/>
      </g>
    </mask>
    <mask id="hybrid_svg__bp">
      <g filter="url(#hybrid_svg__a)">
        <path d="M0 0h118v118H0z" style="fill:#000;fill-opacity:.00392157;stroke:none"/>
      </g>
    </mask>
    <mask id="hybrid_svg__br">
      <g filter="url(#hybrid_svg__a)">
        <path d="M0 0h118v118H0z" style="fill:#000;fill-opacity:.00392157;stroke:none"/>
      </g>
    </mask>
    <mask id="hybrid_svg__bt">
      <g filter="url(#hybrid_svg__a)">
        <path d="M0 0h118v118H0z" style="fill:#000;fill-opacity:.00392157;stroke:none"/>
      </g>
    </mask>
    <mask id="hybrid_svg__bv">
      <g filter="url(#hybrid_svg__a)">
        <path d="M0 0h118v118H0z" style="fill:#000;fill-opacity:.00392157;stroke:none"/>
      </g>
    </mask>
    <mask id="hybrid_svg__bx">
      <g filter="url(#hybrid_svg__a)">
        <path d="M0 0h118v118H0z" style="fill:#000;fill-opacity:.00392157;stroke:none"/>
      </g>
    </mask>
    <mask id="hybrid_svg__bz">
      <g filter="url(#hybrid_svg__a)">
        <path d="M0 0h118v118H0z" style="fill:#000;fill-opacity:.00392157;stroke:none"/>
      </g>
    </mask>
    <mask id="hybrid_svg__bB">
      <g filter="url(#hybrid_svg__a)">
        <path d="M0 0h118v118H0z" style="fill:#000;fill-opacity:.00392157;stroke:none"/>
      </g>
    </mask>
    <mask id="hybrid_svg__bD">
      <g filter="url(#hybrid_svg__a)">
        <path d="M0 0h118v118H0z" style="fill:#000;fill-opacity:.00392157;stroke:none"/>
      </g>
    </mask>
    <mask id="hybrid_svg__bF">
      <g filter="url(#hybrid_svg__a)">
        <path d="M0 0h118v118H0z" style="fill:#000;fill-opacity:.00392157;stroke:none"/>
      </g>
    </mask>
    <g id="hybrid_svg__U" clip-path="url(#hybrid_svg__b)">
      <path d="M38.383 53.676v-.656h.203a6.14 6.14 0 0 1 .023-.758.332.332 0 0 1 .227-.051c.016-.188 0-.371-.05-.555a1.519 1.519 0 0 0-.958-.3.229.229 0 0 0-.152-.13c-.235-.038-.469-.074-.707-.101a.47.47 0 0 0-.2-.148 24.82 24.82 0 0 0-.507-.051 1.383 1.383 0 0 0-.907-.254l-.152-.152a1.721 1.721 0 0 1-.86-.25c-.148-.02-.3-.036-.452-.051a1.54 1.54 0 0 0-.907-.254.358.358 0 0 0-.152-.153 1.53 1.53 0 0 1-.809-.25c-.152-.015-.304-.035-.453-.05a1.324 1.324 0 0 0-.808-.278.214.214 0 0 0-.153-.125l-1.21-.304a1.042 1.042 0 0 0-.758-.254c-.051-.047-.098-.098-.149-.149-.285 0-.535-.086-.758-.254a.657.657 0 0 1-.554-.203 3.836 3.836 0 0 0-.555-.097l-.152-.153a1.174 1.174 0 0 1-.707-.254.715.715 0 0 1-.555-.199c-.168-.047-.336-.09-.504-.129a25.68 25.68 0 0 1-.656-.328 2.49 2.49 0 0 0-.508-.101.782.782 0 0 0-.605-.25l-.149-.153a37.704 37.704 0 0 1-1.566-.582.388.388 0 0 0-.102-.125 10.88 10.88 0 0 1-.351-.05.738.738 0 0 0-.254-.2 53.035 53.035 0 0 0-1.817-.785.784.784 0 0 0-.504-.227.569.569 0 0 0-.43-.226.747.747 0 0 0-.48-.254.528.528 0 0 1-.101-.125c-.391-.176-.778-.363-1.16-.555a.505.505 0 0 0-.38-.226.454.454 0 0 0-.378-.227c-.418-.289-.84-.574-1.262-.86-.098-.042-.2-.081-.3-.124a2.362 2.362 0 0 1-.356-.328 4.334 4.334 0 0 1-.957-.707c-.086-.043-.168-.086-.254-.125a12.201 12.201 0 0 1-1.008-.887 2.602 2.602 0 0 0-.73-.73c-.086-.133-.169-.27-.254-.403a1.29 1.29 0 0 1-.176-.101 8.524 8.524 0 0 0-.735-1.11 9.055 9.055 0 0 1-.3-.808.358.358 0 0 0-.153-.153 6.163 6.163 0 0 0-.226-1.437c.133-.399.207-.813.226-1.239a.513.513 0 0 0 .125-.097c.156-.297.297-.602.43-.91.047-.11.02-.192-.074-.254a.803.803 0 0 1-.356.23c-.015.149-.097.235-.25.25a.335.335 0 0 1-.226.278c-.051.097-.082.195-.102.304-.05.032-.101.067-.152.102-.153.25-.262.52-.328.805a.574.574 0 0 0-.176.304 8.002 8.002 0 0 1-.125 1.184c.07.344.113.687.125 1.035.094.273.219.527.379.758.164.332.336.672.504 1.011a.427.427 0 0 1 .203.25c.055.004.105.02.148.051.059.16.149.297.281.403.051.078.075.164.075.254.172-.004.238.078.203.253a.207.207 0 0 1 .176.051c.359.414.695.852 1.007 1.309.168.058.313.152.43.281.223.223.453.45.68.68.023.07.047.136.078.203.262.172.48.379.656.629.469.347.942.699 1.414 1.058.067.02.133.036.2.051.03.121.082.23.152.328a15.339 15.339 0 0 0-.504-.277.636.636 0 0 1-.152-.25c-.168-.117-.336-.234-.504-.356a14.969 14.969 0 0 1-2.801-2.648 2.635 2.635 0 0 1-.656-.555 29.83 29.83 0 0 0-.961-1.261 3.758 3.758 0 0 0-.328-.707.304.304 0 0 0-.25-.102.403.403 0 0 0-.028-.203 8.126 8.126 0 0 1-.906-2.32.455.455 0 0 0-.277-.051c-.012-.336 0-.672.023-1.008a.711.711 0 0 0 .203-.152c.024-.203.031-.403.024-.606h.254v-.453h.203c-.012-.152 0-.305.023-.457a.355.355 0 0 1 .227-.05c-.008-.134 0-.27.027-.403a.322.322 0 0 1 .227-.05v-.25H8.3c.02-.138.035-.27.05-.407.16 0 .243-.086.254-.25a.337.337 0 0 1 .204-.05v-.204h.199c-.031-.203.05-.285.254-.254-.035-.2.05-.285.254-.25v-.203h.199v-.254h.254c-.035-.2.05-.285.25-.25v-.203h.203c-.035-.2.05-.285.254-.25v-.203c.183.015.27-.07.25-.254.09.015.176 0 .254-.05a.432.432 0 0 1 .453-.2c-.035-.176.031-.258.203-.254-.008-.172.078-.238.25-.203a.235.235 0 0 1 .05-.176.764.764 0 0 1 .407-.074v-.203c.184.015.27-.067.25-.25.121.008.238 0 .355-.028a.235.235 0 0 0 .102-.226h.25v-.203c.086.008.172 0 .254-.024.101-.176.25-.254.453-.226a.322.322 0 0 1 .05-.227c.134-.027.27-.035.403-.027v-.203h.254a.332.332 0 0 1 .05-.227c.134-.023.27-.031.403-.023a.403.403 0 0 1 .028-.203c.14-.032.25-.11.328-.227.117-.023.234-.035.351-.027a.332.332 0 0 1 .051-.227c.133-.023.27-.031.402-.023-.03-.203.051-.286.254-.254v-.2h.453v-.253h.254a.22.22 0 0 1 .051-.176c.133-.043.266-.067.402-.078a.22.22 0 0 1 .051-.176c.153-.024.301-.031.453-.024v-.253h.254a.22.22 0 0 1 .051-.176.9.9 0 0 1 .402-.074v-.204h.457v-.253c.106.015.207 0 .301-.051a.48.48 0 0 1 .402-.2.245.245 0 0 1 .051-.18c.137-.023.27-.03.407-.023a.308.308 0 0 1 .05-.226 1.54 1.54 0 0 1 .403-.027.388.388 0 0 1 .027-.2.536.536 0 0 0 .324-.226c.117-.028.235-.035.356-.028a.343.343 0 0 1 .05-.203c.149-.047.297-.066.454-.05a.332.332 0 0 1 .05-.227.596.596 0 0 0 .403-.2c.086-.027.168-.034.254-.027a.332.332 0 0 1 .05-.226c.133-.024.27-.035.403-.024v-.203c.152-.012.304-.027.457-.05v-.204h.3a.22.22 0 0 1 .051-.175.848.848 0 0 1 .352-.075.25.25 0 0 1 .05-.18c.153-.023.305-.046.458-.074v-.203h.453v-.25h.254a.218.218 0 0 1 .047-.175c.136-.028.27-.036.406-.028v-.25h.453a.338.338 0 0 1 .05-.23c.247-.028.466-.106.657-.227a.228.228 0 0 1 .102-.226c.12-.008.238-.036.351-.075a.337.337 0 0 0 .05-.203h.458v-.203h.25a.22.22 0 0 1 .05-.176.956.956 0 0 1 .403-.074.252.252 0 0 1 .05-.203c.134-.043.267-.063.407-.05v-.204h.453c-.031-.195.051-.285.254-.277.04-.051.059-.11.047-.176.137-.016.27-.031.406-.05a.22.22 0 0 1 .051-.177c.148-.023.3-.035.453-.023v-.254c.235.055.403-.023.504-.227a.403.403 0 0 1 .203-.027.22.22 0 0 1 .051-.176c.133-.023.27-.03.402-.023a.322.322 0 0 1 .051-.227c.133-.027.27-.035.406-.027-.023-.215.078-.309.301-.277a.814.814 0 0 1 .403-.227.98.98 0 0 1 .101-.176c.133-.027.27-.035.406-.027a.23.23 0 0 1 .051-.2.93.93 0 0 1 .402-.05v-.203c.204.023.356-.05.454-.227a.621.621 0 0 1 .253-.027v-.2c.153-.011.305-.027.454-.05v-.203h.453c-.02-.223.082-.305.304-.254a.144.144 0 0 1 .051-.149.854.854 0 0 1 .403-.101v-.203h.453v-.25h.457v-.203a.353.353 0 0 0 .25-.051c.105-.164.258-.23.457-.203a.23.23 0 0 1 .05-.2.93.93 0 0 1 .403-.05v-.203h.504v-.254h.254a.207.207 0 0 1 .05-.176.945.945 0 0 1 .403-.074v-.203h.453v-.254h.457a.438.438 0 0 1 .023-.2c.141-.03.25-.109.328-.226a1.19 1.19 0 0 1 .352-.027.427.427 0 0 1 .027-.2c.141-.035.286-.066.43-.101a.375.375 0 0 0 .05-.203h.454v-.203h.254a.218.218 0 0 1 .047-.176.729.729 0 0 1 .406-.074.239.239 0 0 1 .05-.204.938.938 0 0 1 .403-.05v-.204h.453c-.027-.19.059-.289.254-.3.016-.035.035-.067.051-.102.133-.05.27-.101.402-.152a.82.82 0 0 0 .051-.102c.149-.047.3-.066.453-.047v-.254c.235.055.403-.023.508-.226.063-.027.133-.035.2-.027a.22.22 0 0 1 .05-.176c.133-.024.27-.031.406-.024a.304.304 0 0 1 .051-.226c.133-.028.266-.035.402-.028a.256.256 0 0 1 .051-.203c.324-.05.574-.21.758-.476a1.54 1.54 0 0 1 .402-.028v-.203c.153-.023.301-.039.453-.047v-.203a.43.43 0 0 0 .458-.226.603.603 0 0 1 .25-.028.22.22 0 0 1 .05-.175c.137-.028.27-.055.403-.075v-.203h.457a.308.308 0 0 1 .05-.226c.215-.082.434-.168.657-.254a.35.35 0 0 0 .05-.227h.454a.308.308 0 0 1 .05-.226c.133-.024.266-.035.403-.024v-.203a.363.363 0 0 0 .254-.05c.101-.165.254-.231.453-.204a.244.244 0 0 1 .05-.199.938.938 0 0 1 .403-.05.229.229 0 0 1 .05-.18c.153-.024.301-.032.454-.024V3.91h1.363v1.617h-.2c.009.203 0 .403-.026.606-.051.082-.13.113-.227.101.008.204 0 .403-.023.606a.176.176 0 0 1-.18.101c-.028.2-.055.403-.074.606a.707.707 0 0 0-.204.555.901.901 0 0 0-.25.707.24.24 0 0 1-.18.05c.013.223-.015.442-.073.657a.218.218 0 0 1-.176.046v.657a.366.366 0 0 0-.203.05c-.051.22-.067.438-.051.657h-.2c-.003.238-.019.472-.05.707h-.203c.008.219 0 .437-.024.656a.338.338 0 0 1-.23.05c.012.22 0 .438-.024.657a.22.22 0 0 1-.175.05c.007.153 0 .306-.028.454a.28.28 0 0 1-.175.254 2.414 2.414 0 0 0-.075.504.759.759 0 0 0-.254.656.22.22 0 0 1-.175.05c.007.204 0 .403-.028.606-.054.078-.129.11-.226.102.015.219 0 .437-.051.656a.362.362 0 0 1-.2.05v.657a.215.215 0 0 0-.179.05 9.367 9.367 0 0 1-.074.657h-.203c.011.219 0 .438-.024.656a.33.33 0 0 1-.226.047c.007.223 0 .442-.028.657a.207.207 0 0 1-.175.05c.015.207-.012.41-.075.606-.05.035-.101.07-.152.101a2.425 2.425 0 0 0-.027.504.239.239 0 0 0-.227.102 3.925 3.925 0 0 0-.023.605h-.203c.007.22 0 .438-.024.657a.312.312 0 0 1-.227.05c.016.223-.003.442-.05.657a.343.343 0 0 1-.203.05c.015.223 0 .442-.051.657-.035.015-.067.035-.102.05-.039.184-.066.368-.074.555a.219.219 0 0 1-.227.102 4.1 4.1 0 0 1-.027.656.327.327 0 0 1-.226.05c.007.22 0 .438-.024.657a.229.229 0 0 1-.18.05.676.676 0 0 1-.199.657 1.56 1.56 0 0 0-.05.555.238.238 0 0 0-.204.101c-.05.2-.066.399-.05.606h-.2a4.1 4.1 0 0 1-.027.656.35.35 0 0 1-.227.05 4.1 4.1 0 0 1-.027.657.218.218 0 0 1-.176.047c-.004.226-.039.441-.101.656-.032.02-.067.035-.098.05-.043.2-.07.403-.078.606-.066.035-.133.07-.203.102l-.047.605a.229.229 0 0 1-.18.051c.004.223-.02.442-.074.656a.22.22 0 0 1-.176.051c.008.168 0 .336-.027.504a.736.736 0 0 0-.227.707H45.7c.008.238-.008.473-.047.707h-.203a4.1 4.1 0 0 1-.027.656.327.327 0 0 1-.227.051c.008.219 0 .438-.023.656a.22.22 0 0 1-.176.051c.008.223-.016.442-.078.656a.22.22 0 0 1-.176.051c.008.203 0 .403-.023.606-.059.039-.117.074-.18.101-.039.2-.066.399-.074.606a.235.235 0 0 1-.176.05c.008.153 0 .301-.027.454a.275.275 0 0 1-.176.25c-.05.168-.066.336-.05.507a.24.24 0 0 0-.204.098c-.047.2-.066.402-.05.61h-.2c.008.199 0 .402-.027.605a.213.213 0 0 1-.227.098c.008.222 0 .441-.023.656a.312.312 0 0 1-.227.05 4.1 4.1 0 0 1-.027.657.22.22 0 0 1-.176.05c.008.188 0 .372-.027.555-.028.121-.106.172-.227.153.008.203 0 .406-.023.605a.98.98 0 0 1-.176.102c-.043.199-.07.402-.078.605a.22.22 0 0 1-.176.051c.016.172 0 .34-.05.504a.473.473 0 0 1-.153.152c-.031.184-.067.371-.098.555-.05.035-.101.066-.152.102-.05.199-.067.402-.05.605h-.204c.008.219 0 .437-.023.656a.332.332 0 0 1-.227.051 4.1 4.1 0 0 1-.027.656.35.35 0 0 1-.227.051 4.1 4.1 0 0 1-.027.656.235.235 0 0 1-.176.051c.008.184 0 .367-.024.555-.03.117-.105.168-.226.148.008.203 0 .406-.027.606-.067.035-.133.07-.2.101-.054.403-.129.79-.23 1.16a.241.241 0 0 0-.2.102c-.05.2-.066.402-.05.605h-.203a8.48 8.48 0 0 1-.051.707h-.203c.012.22 0 .438-.024.657a.308.308 0 0 1-.226.05 4.1 4.1 0 0 1-.028.657.22.22 0 0 1-.175.05c.008.18-.012.356-.051.532a.184.184 0 0 1-.148.176c-.04.203-.083.406-.13.605a.22.22 0 0 1-.175.05Zm0 0" style="stroke:none;fill-rule:evenodd;fill:#0004c4;fill-opacity:1"/>
    </g>
    <g id="hybrid_svg__W" clip-path="url(#hybrid_svg__c)">
      <path d="M80.93 12.441v.153H81.382v.25c.157-.016.31 0 .458.05a.776.776 0 0 0 .097.176c.118.02.239.035.356.051.043.05.059.11.05.18.2-.031.352.035.454.199a.34.34 0 0 0 .254.05v.204c.152.008.3.027.453.05v.2h.453v.254c.156-.016.309 0 .453.05a.788.788 0 0 0 .254.255v.148h.203c.223-.055.324.031.301.254h.457v.203c.152.008.3.027.453.05v.2c.152 0 .305.02.453.05v.204h.254v.2c.133-.009.27.003.403.026.082.051.113.13.101.227.137-.008.27 0 .402.027.047.067.063.141.051.227.137-.008.27 0 .406.023.04.051.059.11.047.176.114-.02.196.016.254.102v.152H88.902v.254c.157-.02.309 0 .457.047a.82.82 0 0 0 .051.101c.137.04.27.082.403.13a.22.22 0 0 1 .05.175.75.75 0 0 1 .403.074.22.22 0 0 1 .05.176h.254v.203c.133-.008.27 0 .403.028.043.066.062.14.05.226h.454v.25h.457a.253.253 0 0 0 .023.152c.082.032.156.063.227.102v.203h.503v.25h.458v.203a.938.938 0 0 1 .402.051.249.249 0 0 1 .05.203.715.715 0 0 1 .403.074.22.22 0 0 1 .05.176h.255v.203c.152-.008.304 0 .453.024.047.07.062.144.05.226.137-.008.27 0 .403.028.086.191.238.277.457.25a.233.233 0 0 1 .05.18h.25a.239.239 0 0 0 .102.226c.118.023.235.031.356.023v.203a.524.524 0 0 1 .504.204c.113.039.23.066.351.074a.228.228 0 0 1 .102.226.772.772 0 0 1 .351.051c.07.113.172.18.305.203a.244.244 0 0 1 .05.2h.454v.253h.453v.203c.152.008.305.028.457.051 0 .157.086.242.25.25.117.184.285.25.508.203v.204a.938.938 0 0 1 .402.05.244.244 0 0 1 .051.2c.137-.008.27 0 .402.027a.308.308 0 0 1 .051.226c.121-.007.238 0 .356.024a.336.336 0 0 0 .351.18v.25c.153-.008.305 0 .453.027.047.066.063.14.051.226.137-.007.27 0 .406.024.04.05.059.11.047.176a.966.966 0 0 1 .406.078.22.22 0 0 1 .051.176h.25c0 .082.035.148.102.203.113.047.23.066.355.05v.2c.133-.008.27 0 .403.027.035.066.066.133.101.2.137.011.274.034.403.077.039.063.054.13.05.2.196-.036.344.023.453.18.204-.012.286.081.254.277h.454v.25h.457v.203c.152 0 .304.015.453.05v.204a.32.32 0 0 1 .25.05v.2h.507v.203c.133-.008.27 0 .403.023.043.07.062.145.05.23.2-.027.352.048.454.227a.694.694 0 0 0 .254.024v.203c.203-.035.285.05.25.25h.203v.203c.203-.035.285.05.254.254.199-.035.285.05.25.25h.203v.203c.203-.035.285.05.254.254.199-.035.285.05.25.25h.203a.65.65 0 0 0 .05.355.23.23 0 0 0 .204.098v.254h.199c.023.152.043.3.05.453h.204v.457a.312.312 0 0 1 .226.05c.024.15.032.302.024.454h.203c.031.234.047.469.05.707a.22.22 0 0 1 .177.05c.007.337.035.673.078 1.009.05.058.109.109.175.152.024 16.805.032 33.613.024 50.418h-.25a9.81 9.81 0 0 0-.633-1.766.388.388 0 0 0-.125-.101 1.23 1.23 0 0 1-.102-.051 13.78 13.78 0 0 1-.43-.906 1.24 1.24 0 0 0-.226-.203.448.448 0 0 0-.023-.204 2.881 2.881 0 0 1-.406-.605.19.19 0 0 0-.176-.098.92.92 0 0 0-.074-.355.229.229 0 0 0-.18-.05v-.302c-.145.012-.219-.054-.227-.203-.36-.351-.695-.722-1.007-1.11-.348-.28-.692-.558-1.036-.831a.229.229 0 0 1-.05-.18h-.204a1.974 1.974 0 0 1-.351-.2 3.102 3.102 0 0 0-1.059-.808.264.264 0 0 1-.05-.152.898.898 0 0 0-.102-.203 9.006 9.006 0 0 1-1.211-.934 1.441 1.441 0 0 1-.555-.3.395.395 0 0 0-.355-.278c-.297-.3-.649-.52-1.059-.656a.484.484 0 0 0-.402-.278.32.32 0 0 0-.356-.175v-.153a.313.313 0 0 1-.3-.226.923.923 0 0 0-.356-.078c-.035 0-.05-.016-.05-.051-.075-.098-.16-.2-.25-.3a4.65 4.65 0 0 1-1.215-.782 7.999 7.999 0 0 1-.403-.129 1.745 1.745 0 0 1-.504-.379.88.88 0 0 1-.355-.125 4.279 4.279 0 0 0-1.008-.578c-.168-.137-.336-.273-.504-.406-.101-.032-.203-.067-.305-.102-.183-.148-.367-.3-.554-.453a12.54 12.54 0 0 1-.656-.254.998.998 0 0 0-.454-.25c-.035-.05-.066-.101-.101-.152a.723.723 0 0 1-.555-.203.448.448 0 0 0-.203-.024 1.202 1.202 0 0 0-.2-.226 1.027 1.027 0 0 1-.554-.176 1.913 1.913 0 0 0-.558-.328 1.112 1.112 0 0 1-.2-.23.576.576 0 0 0-.504-.25.325.325 0 0 0-.101-.255 1.022 1.022 0 0 0-.406-.05v-.2a5.953 5.953 0 0 1-.454-.05.22.22 0 0 0-.05-.176c-.118-.02-.235-.035-.352-.051-.09-.195-.238-.277-.457-.254a9.562 9.562 0 0 1-.605-.402.447.447 0 0 1-.454-.23.598.598 0 0 1-.453-.227.511.511 0 0 1-.457-.227 11.187 11.187 0 0 0-.804-.328.432.432 0 0 0-.457-.176c-.2-.082-.403-.168-.606-.254a.513.513 0 0 1-.098-.125 1.814 1.814 0 0 1-.406-.125.548.548 0 0 0-.504-.226.283.283 0 0 0-.203-.13.745.745 0 0 1-.605-.226 2.253 2.253 0 0 1-.352-.101 8.938 8.938 0 0 1-1.515-.805c-.247-.07-.5-.094-.758-.078v.152c-.133 0-.2-.07-.2-.203a3.71 3.71 0 0 1-.457-.074.218.218 0 0 1-.046-.176 1.57 1.57 0 0 1-.407-.027.98.98 0 0 1-.101-.176 1.049 1.049 0 0 0-.453-.05v-.204a1 1 0 0 1-.403-.047.242.242 0 0 1-.05-.203c-.172.008-.34 0-.504-.027a.297.297 0 0 1-.204-.2 1.964 1.964 0 0 0-.453-.027V61.5c-.171 0-.34-.016-.507-.05v-.204h-.454v-.254c-.168.012-.335 0-.503-.023a.924.924 0 0 0-.657-.227v-.203a2.19 2.19 0 0 1-.453-.023.318.318 0 0 1-.05-.23c-.165.015-.317 0-.458-.048v-.152h-.148a1.248 1.248 0 0 1-.508-.078.218.218 0 0 1-.047-.176h-.457v-.25a.68.68 0 0 1-.605-.18c-.184-.02-.371-.047-.555-.074v-.203h-.504v-.25c-.203.008-.406 0-.605-.027a.22.22 0 0 1-.051-.176 2.19 2.19 0 0 1-.453-.024.318.318 0 0 1-.051-.23c-.152.008-.305 0-.457-.023a.634.634 0 0 0-.148-.204c-.184-.023-.372-.03-.555-.023v-.203c-.153.008-.305 0-.457-.024a.355.355 0 0 1-.051-.226c-.2.008-.402 0-.605-.028a.98.98 0 0 1-.102-.175c-.145-.051-.297-.067-.453-.051v-.203c-.203.008-.403 0-.606-.024a.239.239 0 0 1-.101-.226h-.453v-.254h-.707v-.203a2.19 2.19 0 0 1-.453-.024.312.312 0 0 1-.051-.226h-.656v-.203c-.22-.028-.438-.051-.657-.075a.225.225 0 0 1-.05-.18 1.95 1.95 0 0 1-.454-.023.312.312 0 0 1-.05-.226c-.2.027-.352-.04-.454-.203a.256.256 0 0 0-.203-.051c-.035-.149-.05-.3-.05-.453h-.204c-.023-.153-.039-.301-.05-.453a.22.22 0 0 1-.176-.051c-.024-11.676-.031-23.352-.024-35.028-.168.004-.242-.082-.226-.253a835.262 835.262 0 0 1 0-13.274.664.664 0 0 0 .2-.148c.019-.27.034-.54.05-.809a.991.991 0 0 0 .226-.504h.204v-.203a.363.363 0 0 0 .253-.05.268.268 0 0 1 .149-.176c.406-.028.808-.036 1.21-.028a.366.366 0 0 0 .052.203c.218.043.437.067.656.074.043.051.058.114.05.18.208-.015.41.012.606.074a.22.22 0 0 1 .05.176c.157-.015.31 0 .454.051.04.062.055.129.05.203.138-.008.274 0 .407.024.043.05.059.109.05.18h.25a.239.239 0 0 0 .102.226c.118.023.235.031.356.023v.254h.453v.2c.137-.008.27 0 .402.027a.228.228 0 0 1 .102.226c.137.004.27.02.402.051v.152c.102.016.203.032.305.051v.2c.137-.008.27 0 .402.027a.308.308 0 0 1 .051.226h.457v.203c.148.024.3.04.453.047v.203a.353.353 0 0 1 .25.051.447.447 0 0 0 .457.227.22.22 0 0 1 .051.176c.152.003.305.02.453.05v.203c.137-.007.27 0 .402.028.047.066.063.14.051.226.102-.007.203 0 .305.024.094.105.21.172.352.203a.308.308 0 0 1 .05.226c.157-.015.305 0 .453.051.04.063.055.13.051.203.137-.011.27 0 .406.024.04.05.059.11.051.176.137.011.27.035.403.078a.22.22 0 0 1 .05.175h.25a.235.235 0 0 0 .102.227c.117.024.234.035.355.024v.203c.133-.008.27 0 .403.027.043.066.062.14.05.227.137-.008.27 0 .403.023a.791.791 0 0 1 .101.176c.235.07.454.16.657.277.047.07.062.145.05.23h.454v.25h.457v.204a.956.956 0 0 1 .402.074.22.22 0 0 1 .05.176h.255v.254h.504v.203c.136-.008.27 0 .402.023.043.07.062.145.05.227.137-.008.27 0 .403.027a.308.308 0 0 1 .05.227.347.347 0 0 1 .255.05Zm0 0" style="stroke:none;fill-rule:evenodd;fill:#04c8fe;fill-opacity:1"/>
    </g>
    <g id="hybrid_svg__Y" clip-path="url(#hybrid_svg__d)">
      <path d="M80.93 12.441c.101 0 .152.051.152.153h-.152v-.153Zm0 0" style="stroke:none;fill-rule:evenodd;fill:#00fffe;fill-opacity:1"/>
    </g>
    <g id="hybrid_svg__aa" clip-path="url(#hybrid_svg__e)">
      <path d="M84.664 14.563c.106-.004.176.046.203.148h-.203v-.149Zm0 0" style="stroke:none;fill-rule:evenodd;fill:#00fffe;fill-opacity:1"/>
    </g>
    <g id="hybrid_svg__ac" clip-path="url(#hybrid_svg__f)">
      <path d="M88.45 16.68c.1 0 .152.05.152.152h-.153v-.152Zm0 0" style="stroke:none;fill-rule:evenodd;fill:#00fffe;fill-opacity:1"/>
    </g>
    <g id="hybrid_svg__ae" clip-path="url(#hybrid_svg__g)">
      <path d="M92.184 18.75a.31.31 0 0 1 .203.203h-.203v-.203Zm0 0" style="stroke:none;fill-rule:evenodd;fill:#00fffe;fill-opacity:1"/>
    </g>
    <g id="hybrid_svg__ag" clip-path="url(#hybrid_svg__h)">
      <path d="M107.223 27.23c.12.016.187.082.203.2h-.203v-.2Zm0 0" style="stroke:none;fill-rule:evenodd;fill:#00fcff;fill-opacity:1"/>
    </g>
    <g id="hybrid_svg__ai" clip-path="url(#hybrid_svg__i)">
      <path d="M38.383 53.574v.102a.489.489 0 0 1-.305-.051.495.495 0 0 1-.047-.152c.047-.106.106-.207.176-.301.016-.152.031-.305.05-.457a.448.448 0 0 1 .15-.2c.007-.226.05-.445.128-.656a1.23 1.23 0 0 0-.101-.05c-.43-.168-.868-.313-1.313-.43a6.315 6.315 0 0 1-.605-.102 1.049 1.049 0 0 0-.707-.203 2.613 2.613 0 0 1-.454-.199 2.623 2.623 0 0 1-.554-.102c-.035-.035-.07-.066-.102-.101a1.733 1.733 0 0 1-.86-.25 3.999 3.999 0 0 1-.605-.102 1.1 1.1 0 0 0-.656-.203 1.658 1.658 0 0 0-.808-.254.8.8 0 0 0-.606-.199 1.455 1.455 0 0 0-.805-.254 1.56 1.56 0 0 0-.757-.25.813.813 0 0 0-.606-.203.948.948 0 0 1-.328-.176 8.272 8.272 0 0 0-.43-.078 1.29 1.29 0 0 0-.707-.25c-.066-.05-.133-.101-.203-.152-.367-.102-.738-.203-1.11-.305a1.232 1.232 0 0 0-.655-.25.449.449 0 0 0-.2-.152l-1.011-.305c-.051-.047-.102-.098-.153-.148a1.012 1.012 0 0 1-.656-.254 6.642 6.642 0 0 1-.957-.301.358.358 0 0 1-.152-.152 1.012 1.012 0 0 1-.657-.254 7.155 7.155 0 0 1-.855-.301.32.32 0 0 1-.152-.152 2.062 2.062 0 0 1-.407-.102c-.402-.203-.804-.402-1.21-.605a.638.638 0 0 1-.454-.227.604.604 0 0 1-.453-.227.727.727 0 0 1-.504-.254.632.632 0 0 1-.457-.226 9.24 9.24 0 0 1-.758-.328 5.39 5.39 0 0 0-.148-.153c-.379-.175-.75-.359-1.113-.554-.047-.14-.149-.207-.301-.203a63.182 63.182 0 0 1-2.777-1.891 18.2 18.2 0 0 1-2.852-2.926c-.234-.437-.469-.875-.707-1.312a9.726 9.726 0 0 0-.05-.356 1.657 1.657 0 0 1-.2-.504c-.04-.605-.031-1.21.023-1.816a.192.192 0 0 0-.074-.152c-.039.191-.125.359-.254.504-.027.324-.11.625-.25.91a6.394 6.394 0 0 0 0 1.16c.153.316.239.652.25 1.008.215.422.434.843.656 1.261.028.067.036.133.028.203a.427.427 0 0 0-.203-.25c-.168-.34-.34-.68-.504-1.011a5.667 5.667 0 0 0-.278-1.008 11.645 11.645 0 0 1 0-1.566c.122-.457.29-.895.504-1.313a.99.99 0 0 0 .227-.352c.086-.066.152-.05.203.051a4.207 4.207 0 0 0 .023 3.13c.301.702.692 1.359 1.16 1.968a19.112 19.112 0 0 0 3.712 3.254 65.35 65.35 0 0 0 2.171 1.363c.77.375 1.528.777 2.27 1.211a114.169 114.169 0 0 0 6.512 2.828c1.738.653 3.488 1.274 5.25 1.867a264.34 264.34 0 0 0 8.883 2.672.202.202 0 0 1 .046.102c-.047.078-.097.152-.148.226a6.417 6.417 0 0 0-.078.606.33.33 0 0 0-.149.152c-.043.246-.035.48.024.707Zm0 0" style="stroke:none;fill-rule:evenodd;fill:#0000b1;fill-opacity:1"/>
    </g>
    <g id="hybrid_svg__ak" clip-path="url(#hybrid_svg__j)">
      <path d="M38.383 53.676c.008.136 0 .27-.024.402a.364.364 0 0 1-.129.102c-.05.234-.085.468-.101.707h-.2v.707a.233.233 0 0 0-.202.101c-.036.27-.067.54-.102.805-.031.02-.066.035-.102.05-.046.25-.066.505-.05.759.109 0 .175.05.203.152a.36.36 0 0 1-.25.05v-.152c-.188.04-.371.047-.559.028a7.864 7.864 0 0 0-1.082-.48.595.595 0 0 0-.48-.305.201.201 0 0 0-.102-.176 18.648 18.648 0 0 0-.86-.328.5.5 0 0 0-.452-.227l-.153-.152a5.5 5.5 0 0 0-.804-.25.77.77 0 0 1-.153-.203c-.988-.461-1.965-.95-2.93-1.465-.062-.024-.128-.031-.199-.024.008-.097-.023-.172-.101-.226-.184.015-.32-.055-.403-.203a4.879 4.879 0 0 0-.406-.125 10.684 10.684 0 0 1-.555-.38.669.669 0 0 1-.554-.202 1.186 1.186 0 0 0-.352-.024 3.455 3.455 0 0 1-.96-.582 1.162 1.162 0 0 1-.505-.305 2.57 2.57 0 0 1-.656-.277.396.396 0 0 0-.406-.226.297.297 0 0 1-.149-.153 6.187 6.187 0 0 1-.859-.351.45.45 0 0 0-.254-.227.135.135 0 0 0-.047-.125 85.224 85.224 0 0 1-3.18-1.844.798.798 0 0 1-.355-.379 1.321 1.321 0 0 1-.25-.074 6.026 6.026 0 0 0-.457-.379.92.92 0 0 0-.351-.078c.003-.164-.082-.238-.254-.226-.094-.18-.246-.258-.453-.227a.22.22 0 0 0-.051-.176c-.137-.02-.27-.047-.403-.074a8.508 8.508 0 0 1-.707-.43 2.481 2.481 0 0 0-1.011-.734.144.144 0 0 0-.051-.148c-.55-.368-1.106-.739-1.664-1.114a.971.971 0 0 1-.153-.328 3.723 3.723 0 0 1-.199-.05c-.472-.36-.945-.712-1.414-1.06a2.398 2.398 0 0 0-.656-.628 1.818 1.818 0 0 1-.078-.203c-.227-.23-.457-.457-.68-.68a1.03 1.03 0 0 0-.43-.281 14.365 14.365 0 0 0-1.007-1.309.207.207 0 0 0-.176-.05c.035-.176-.031-.258-.203-.254a.458.458 0 0 0-.075-.254.889.889 0 0 1-.28-.403.282.282 0 0 0-.15-.05.403.403 0 0 0-.027-.204c-.222-.418-.44-.84-.656-1.261a2.49 2.49 0 0 0-.25-1.008 6.394 6.394 0 0 1 0-1.16c.14-.285.223-.586.25-.91.13-.145.215-.313.254-.504.047.039.074.09.074.152-.054.605-.062 1.21-.023 1.816.039.18.105.348.2.504.019.117.034.235.05.356.238.437.473.875.707 1.312a18.2 18.2 0 0 0 2.851 2.926c.91.656 1.836 1.285 2.778 1.89.152-.003.254.063.3.204.364.195.735.379 1.114.554.05.051.101.102.148.153.25.12.5.23.758.328.117.137.27.215.457.227.13.152.301.234.504.253.113.141.266.215.453.227.117.137.266.21.453.227.407.203.809.402 1.211.605.133.047.266.082.407.102a.32.32 0 0 0 .152.152c.277.117.562.219.855.3.188.165.407.247.657.255a.358.358 0 0 0 .152.152c.309.125.629.223.957.3.187.165.406.247.656.255.051.05.102.101.153.148l1.011.305a.449.449 0 0 1 .2.152c.246.02.464.106.656.25l1.11.305c.07.05.136.101.202.152.266.016.5.098.707.25.145.024.285.047.43.078a.948.948 0 0 0 .328.176.813.813 0 0 1 .606.203c.277.02.53.102.757.25.297.008.567.09.805.254a.8.8 0 0 1 .606.2c.296.015.566.1.808.253a1.1 1.1 0 0 1 .656.203c.2.051.403.082.606.102.262.156.547.242.86.25.03.035.066.066.1.101.18.055.364.086.555.102.145.078.293.148.454.2.265-.016.5.05.707.202.199.043.402.078.605.102.445.117.883.262 1.313.43.035.015.066.03.101.05-.078.211-.12.43-.129.657a.448.448 0 0 0-.148.199c-.02.152-.035.305-.051.457-.07.094-.129.195-.176.3a.495.495 0 0 0 .047.153c.098.05.2.066.305.05Zm0 0" style="stroke:none;fill-rule:evenodd;fill:#0000ab;fill-opacity:1"/>
    </g>
    <g id="hybrid_svg__am" clip-path="url(#hybrid_svg__k)">
      <path d="M6.89 35.758a.455.455 0 0 1 .278.05c.184.82.484 1.594.906 2.32.028.067.035.134.028.204a.304.304 0 0 1 .25.102c.132.222.242.457.328.707.332.414.652.832.96 1.261.188.22.407.407.657.555a14.969 14.969 0 0 0 2.8 2.648c.169.122.337.239.505.356.03.094.082.18.152.25.172.09.34.184.504.277.09.149.207.274.351.38a.92.92 0 0 1 .407.304.253.253 0 0 0 .152.023v.254a.332.332 0 0 1 .2.051c.128.129.265.254.405.379.278.066.497.215.657.453.207.098.41.207.605.328a.446.446 0 0 0 .402.278c.13.117.266.234.403.351.203.106.406.207.605.305a.46.46 0 0 0 .407.254c.066.152.183.21.351.175a.22.22 0 0 0 .05.176c.099.047.2.09.306.125.164.133.332.258.503.38.098.042.2.066.301.077.157.094.325.153.508.176.125.137.277.238.453.3.164.235.383.388.656.458a.51.51 0 0 0 .454.226c0 .075.035.133.101.176.18.063.348.149.504.254.078.066.145.14.203.227.098.035.2.058.301.074.035.05.07.101.102.152.136.016.27.035.406.051l.097.152c.547.262 1.086.54 1.618.832.164.102.316.23.453.38.289.054.558.152.808.3.082.133.2.2.352.203a.77.77 0 0 0 .152.203c.246.117.496.215.758.301.035.05.066.102.102.152.117.016.234.032.351.051.04.074.09.145.153.2.132.035.27.07.402.101a.445.445 0 0 0 .457.176c.02.058.05.11.098.152.277.106.543.215.808.328a.75.75 0 0 0 .555.254.49.49 0 0 0 .406.203c.098.164.25.239.453.227a.22.22 0 0 0 .051.176c.2.027.367.109.504.25.316.054.617.14.91.254.234.152.473.304.707.453.156 0 .29.05.402.152.247.012.465.086.657.227.21.02.37.12.48.304.371.133.735.293 1.082.48.188.02.371.012.559-.027v.153a.36.36 0 0 0 .25-.051c.148.031.3.05.453.05v.204c.137-.012.273 0 .406.023a.219.219 0 0 1 .102.227h.453v.203a.938.938 0 0 1 .402.05.23.23 0 0 1 .051.2c.168-.008.34 0 .504.027a.31.31 0 0 1 .203.203c.156.008.305.032.453.075.02.035.035.066.05.101.15.051.302.082.458.102v.199h.453v.254c.168-.008.336 0 .504.023.184.16.402.239.656.23a.22.22 0 0 0 .051.177c.133.015.27.03.402.05a.308.308 0 0 1 .051.227.59.59 0 0 1 .555.176c.203.023.406.05.605.074v.203c.157-.016.309 0 .457.05a.366.366 0 0 1 .051.204c.219-.04.406.02.555.176.187.011.375.047.554.101a.22.22 0 0 1 .051.176h.453v.254c.203-.012.407 0 .606.023.035.051.066.102.101.153.133.015.27.031.403.05a.308.308 0 0 1 .05.227h.504a.235.235 0 0 0 .102.227c.188.008.375.035.555.074.02.035.035.07.05.101.133.043.266.067.407.079a.35.35 0 0 1 .05.226c.22-.02.438 0 .657.05.035.063.05.13.047.2h.457v.203c.203-.008.402 0 .605.024.082.054.113.129.102.23.152-.008.3 0 .453.024.043.07.062.144.05.226h.657v.203c.152-.008.305 0 .453.024.043.07.062.144.05.23.223-.02.442 0 .657.047.04.063.055.133.05.203.204-.008.403 0 .606.028a.22.22 0 0 1 .051.175c.152-.007.305 0 .453.024.047.07.063.144.05.226a.897.897 0 0 1 .306.028.614.614 0 0 0 .351.277.939.939 0 0 1 .051.402h.254v.457a.218.218 0 0 1 .176.047c.023 11.66.03 23.32.023 34.977.098-.008.172.023.227.101.035 4.493.035 8.985 0 13.477a.65.65 0 0 0-.176.152c-.043.285-.067.57-.074.856a.636.636 0 0 0-.203.406.35.35 0 0 1-.227.05v.2h-.254c.02.121-.031.2-.148.227-.391.035-.774.035-1.164 0a.344.344 0 0 1-.051-.227h-.703v-.2a1.848 1.848 0 0 1-.657-.077.22.22 0 0 1-.05-.176h-.457a.325.325 0 0 0-.047-.227 1.775 1.775 0 0 1-.407-.074 1.545 1.545 0 0 1-.402-.379c-.117-.027-.234-.035-.355-.027v-.203a2.203 2.203 0 0 0-.453-.047v-.203c-.137.008-.27 0-.403-.028a.308.308 0 0 1-.05-.226c-.102.008-.204 0-.305-.024a.881.881 0 0 0-.352-.226.533.533 0 0 0-.504-.227.318.318 0 0 1-.05-.23h-.458v-.2a1.788 1.788 0 0 1-.402-.078.22.22 0 0 1-.05-.175h-.25a.253.253 0 0 0-.102-.203.688.688 0 0 0-.356-.051v-.2a.764.764 0 0 1-.48-.101.253.253 0 0 1-.024-.152.938.938 0 0 1-.402-.051.23.23 0 0 1-.05-.2.425.425 0 0 1-.458-.179c-.199.012-.281-.082-.25-.277h-.453v-.25h-.457a.22.22 0 0 0-.05-.176 3.619 3.619 0 0 1-.352-.102 2.481 2.481 0 0 1-.453-.406c-.118-.023-.235-.031-.356-.023v-.204c-.137.008-.27 0-.402-.023a.312.312 0 0 1-.051-.227c-.137.008-.27 0-.402-.027a.308.308 0 0 1-.051-.226 3.785 3.785 0 0 1-.707-.204.362.362 0 0 0-.05-.199 1.78 1.78 0 0 0-.407-.078.325.325 0 0 1-.047-.226h-.457v-.204a.945.945 0 0 1-.402-.074.22.22 0 0 1-.051-.176h-.254v-.254h-.453v-.203a1.95 1.95 0 0 1-.453-.023.312.312 0 0 1-.051-.227c-.137.008-.27 0-.403-.027a.308.308 0 0 1-.05-.227 4.003 4.003 0 0 1-.707-.199v-.254h-.457v-.203a4.744 4.744 0 0 1-.907-.3c.004-.165-.082-.243-.254-.227a.229.229 0 0 1-.05-.18c-.153 0-.305-.015-.453-.047v-.203c-.137.008-.27 0-.403-.027a.308.308 0 0 1-.05-.227c-.137.008-.27 0-.407-.023a.235.235 0 0 1-.05-.176.7.7 0 0 1-.454-.23.674.674 0 0 0-.25-.024.366.366 0 0 0-.05-.203 1.775 1.775 0 0 0-.407-.074.235.235 0 0 1-.05-.176 5.953 5.953 0 0 1-.454-.05v-.204a.75.75 0 0 1-.402-.074.225.225 0 0 1-.05-.18h-.255v-.199c-.132.008-.27 0-.402-.027a.308.308 0 0 1-.05-.227c-.157.016-.31 0-.454-.05a.332.332 0 0 1-.05-.2c-.137.008-.27 0-.407-.027a.235.235 0 0 1-.05-.176.474.474 0 0 1-.403-.203.5.5 0 0 0-.3-.05v-.25h-.458v-.204c-.117.008-.234 0-.351-.023a.378.378 0 0 1-.153-.204c-.219.024-.37-.062-.453-.254-.172.016-.258-.062-.254-.226-.137.008-.27 0-.402-.024a.312.312 0 0 1-.05-.226h-.454v-.254a1.57 1.57 0 0 1-.406-.027.22.22 0 0 1-.051-.176.422.422 0 0 1-.453-.227.694.694 0 0 0-.254-.023.336.336 0 0 0-.047-.23c-.152-.024-.305-.032-.457-.024v-.203a.938.938 0 0 1-.402-.05.244.244 0 0 1-.051-.2c-.2.027-.352-.04-.453-.203a.363.363 0 0 0-.254-.051v-.203h-.453v-.25c-.153.008-.305 0-.453-.028-.032-.058-.063-.117-.102-.175a3.694 3.694 0 0 1-.355-.102 1.425 1.425 0 0 1-.403-.379c-.117-.023-.234-.031-.355-.023v-.203a4.466 4.466 0 0 1-.453-.051v-.2c-.137.008-.27 0-.403-.027-.035-.066-.066-.132-.101-.199a1.236 1.236 0 0 1-.606-.254.228.228 0 0 1-.101-.226c-.137.007-.27 0-.403-.028a.308.308 0 0 1-.05-.226h-.457v-.2a5.953 5.953 0 0 1-.454-.05v-.203c-.168.02-.285-.047-.351-.204a.688.688 0 0 0-.356-.05v-.2c-.132.008-.27 0-.402-.027-.082-.05-.113-.129-.102-.226-.136.007-.27 0-.402-.024a.318.318 0 0 1-.05-.23c-.102.007-.204 0-.305-.024a.643.643 0 0 0-.352-.203.308.308 0 0 1-.05-.226h-.454v-.25a1.131 1.131 0 0 1-.457-.051c-.015-.035-.031-.07-.05-.102a1.791 1.791 0 0 0-.403-.129.22.22 0 0 1-.05-.175h-.25a.235.235 0 0 0-.102-.227c-.118-.023-.235-.031-.356-.023v-.204c-.133.008-.27 0-.402-.023a.338.338 0 0 1-.05-.23c-.138.007-.27 0-.403-.024a.312.312 0 0 1-.051-.227c-.121.008-.238 0-.356-.027-.074-.035-.105-.094-.101-.176-.223.055-.324-.03-.3-.254h-.454v-.25h-.457v-.203a.956.956 0 0 1-.402-.074.22.22 0 0 1-.051-.176c-.117.008-.238 0-.352-.027a.378.378 0 0 1-.152-.203c-.066-.024-.133-.031-.203-.024v-.203a2.19 2.19 0 0 1-.453-.023.332.332 0 0 1-.051-.227.51.51 0 0 1-.453-.226c-.172.011-.258-.063-.254-.23h-.203v-.25h-.25v-.204c-.203.035-.285-.05-.254-.25h-.2v-.254h-.253v-.203c-.203.035-.285-.05-.254-.25h-.2v-.254a.448.448 0 0 1-.203-.023 1.334 1.334 0 0 1-.074-.328.234.234 0 0 0-.23-.102v-.254h-.2v-.453h-.253v-.453a.256.256 0 0 1-.203-.05 1.202 1.202 0 0 1-.047-.458h-.203v-.703a.35.35 0 0 1-.227-.05 92.29 92.29 0 0 1-.05-1.013.759.759 0 0 1-.204-.199c-.023-16.844-.035-33.683-.023-50.523Zm0 0" style="stroke:none;fill-rule:evenodd;fill:#000bde;fill-opacity:1"/>
    </g>
    <g id="hybrid_svg__ao" clip-path="url(#hybrid_svg__l)">
      <path d="M38.383 53.574a1.652 1.652 0 0 1-.024-.707.33.33 0 0 1 .149-.152c.015-.203.043-.403.078-.606.05-.074.102-.148.148-.226a.202.202 0 0 0-.047-.102 264.34 264.34 0 0 1-8.882-2.672 164.137 164.137 0 0 1-5.25-1.867c-2.2-.875-4.367-1.816-6.512-2.828-.742-.434-1.5-.836-2.27-1.21a65.35 65.35 0 0 1-2.171-1.364 19.112 19.112 0 0 1-3.711-3.254 9.087 9.087 0 0 1-1.16-1.969 4.207 4.207 0 0 1-.024-3.129c-.05-.101-.117-.117-.203-.05a.99.99 0 0 1-.227.351 6.509 6.509 0 0 0-.504 1.313 11.645 11.645 0 0 0 0 1.566c.125.328.215.664.278 1.008a3.058 3.058 0 0 1-.38-.758 6.19 6.19 0 0 0-.124-1.035c.07-.39.113-.785.125-1.184a.574.574 0 0 1 .176-.304c.066-.286.175-.555.328-.805.05-.035.101-.07.152-.102.02-.11.05-.207.102-.304a.335.335 0 0 0 .226-.278c.153-.015.235-.101.25-.25a.803.803 0 0 0 .356-.23c.093.062.12.144.074.254-.133.308-.274.613-.43.91a.513.513 0 0 1-.125.097c-.02.426-.094.84-.226 1.239.133.469.207.949.226 1.437a.358.358 0 0 1 .153.153c.09.277.187.547.3.808.274.348.516.719.735 1.11.054.039.113.07.176.101.085.133.168.27.253.403.293.195.536.437.73.73.317.312.653.605 1.009.887.086.039.168.082.254.125.289.28.605.515.957.707.105.12.226.23.355.328.102.043.203.082.3.125.423.285.845.57 1.263.86a.454.454 0 0 1 .379.226c.164.02.289.094.378.226.383.192.77.38 1.16.555.028.047.063.09.102.125.195.027.356.11.48.254.18.012.325.09.43.227.2.015.371.093.504.226.61.25 1.215.512 1.817.785a.738.738 0 0 1 .254.2c.117.019.234.035.351.05a.388.388 0 0 1 .102.125c.52.207 1.039.399 1.566.582l.148.153a.782.782 0 0 1 .606.25c.172.015.344.05.508.101.219.113.437.223.656.328.168.04.336.082.504.13.152.144.336.21.555.198.203.16.441.246.707.254l.152.153c.188.02.371.05.555.097a.657.657 0 0 0 .554.203c.223.168.473.254.758.254.051.051.098.102.149.149.289-.016.543.07.757.254l1.211.304c.07.016.121.059.153.125.304.004.574.098.808.278.149.015.301.035.453.05.243.157.508.243.809.25a.358.358 0 0 1 .152.153 1.54 1.54 0 0 1 .907.254c.152.015.304.031.453.05.258.157.547.243.86.25l.151.153c.333-.02.637.062.907.254.168.015.336.031.508.05a.47.47 0 0 1 .199.149c.238.027.472.063.707.102.07.02.12.062.152.128.356-.007.676.094.957.301.05.184.067.367.05.555a.332.332 0 0 0-.226.05 6.14 6.14 0 0 0-.023.759h-.203v.554Zm0 0" style="stroke:none;fill-rule:evenodd;fill:#0002bb;fill-opacity:1"/>
    </g>
    <g id="hybrid_svg__aq" clip-path="url(#hybrid_svg__m)">
      <path d="M14.258 44.488c.558.375 1.113.746 1.664 1.114.047.039.062.09.05.148.4.156.735.402 1.012.734.227.153.461.297.707.43.07.102.172.152.301.148v.153a.38.38 0 0 1 .356.226c.207.102.41.211.605.329a.71.71 0 0 0 .149.175c.18.121.363.23.558.328a.16.16 0 0 1 .047.153c.203-.043.34.035.406.226.11.008.192.047.25.13a1.037 1.037 0 0 1-.3-.079 9.425 9.425 0 0 1-.504-.379 2.621 2.621 0 0 1-.305-.125.22.22 0 0 1-.05-.176c-.169.036-.286-.023-.352-.175a.46.46 0 0 1-.407-.254c-.199-.098-.402-.2-.605-.305-.137-.117-.274-.234-.402-.352a.446.446 0 0 1-.403-.277 6.041 6.041 0 0 0-.605-.328 1.058 1.058 0 0 0-.657-.453 9.482 9.482 0 0 1-.406-.379.332.332 0 0 0-.199-.05v-.255a.253.253 0 0 1-.152-.023.92.92 0 0 0-.407-.305 1.298 1.298 0 0 1-.351-.379Zm0 0" style="stroke:none;fill-rule:evenodd;fill:#0006cc;fill-opacity:1"/>
    </g>
    <g id="hybrid_svg__as" clip-path="url(#hybrid_svg__n)">
      <path d="M17.691 46.914c.133.027.266.055.403.074a.22.22 0 0 1 .05.176c.208-.031.36.047.454.227.172-.012.257.062.254.226a.92.92 0 0 1 .351.078c.16.117.309.246.457.38.078.03.164.058.25.073a.798.798 0 0 0 .356.38 85.224 85.224 0 0 0 3.18 1.843.135.135 0 0 1 .046.125 9.705 9.705 0 0 0-1.058-.555.51.51 0 0 1-.454-.226 1.118 1.118 0 0 1-.656-.457 1.113 1.113 0 0 1-.453-.301 1.29 1.29 0 0 1-.508-.176.312.312 0 0 0-.25-.129c-.066-.191-.203-.27-.406-.226a.16.16 0 0 0-.047-.153 4.98 4.98 0 0 1-.558-.328.71.71 0 0 1-.149-.175 8.186 8.186 0 0 0-.605-.329.38.38 0 0 0-.356-.226v-.153a.334.334 0 0 1-.3-.148Zm0 0" style="stroke:none;fill-rule:evenodd;fill:#0003be;fill-opacity:1"/>
    </g>
    <g id="hybrid_svg__au" clip-path="url(#hybrid_svg__o)">
      <path d="M22.434 49.941c.367.164.722.352 1.058.555a.45.45 0 0 1 .254.227c.274.136.559.254.86.351.03.07.081.121.148.153a.396.396 0 0 1 .406.226c.203.121.422.215.656.277.145.149.313.247.504.305.29.246.61.442.961.582a.92.92 0 0 0 .352.125c.433.27.87.54 1.312.809.145.07.297.12.453.148.094.13.211.203.356.227a.445.445 0 0 1-.457-.176c-.133-.031-.27-.066-.402-.102a.694.694 0 0 1-.153-.199c-.117-.02-.234-.035-.351-.05-.036-.051-.067-.102-.102-.153a6.372 6.372 0 0 1-.758-.3.77.77 0 0 1-.152-.204.402.402 0 0 1-.352-.203 2.464 2.464 0 0 0-.808-.3 2.184 2.184 0 0 0-.453-.38c-.532-.293-1.07-.57-1.618-.832-.03-.05-.066-.101-.097-.152-.137-.016-.27-.035-.406-.05a3.439 3.439 0 0 0-.102-.153 1.612 1.612 0 0 1-.3-.074 1.124 1.124 0 0 0-.204-.227 2.179 2.179 0 0 0-.504-.254.201.201 0 0 1-.101-.176Zm0 0" style="stroke:none;fill-rule:evenodd;fill:#0007ce;fill-opacity:1"/>
    </g>
    <g id="hybrid_svg__aw" clip-path="url(#hybrid_svg__p)">
      <path d="M27.281 52.617c.117-.012.235 0 .352.024a.669.669 0 0 0 .555.203c.18.133.367.258.554.379.137.035.274.078.406.125.082.148.22.218.403.203.078.054.11.129.101.226.07-.007.137 0 .2.024a60.222 60.222 0 0 0 2.93 1.465.77.77 0 0 0 .152.203 5.5 5.5 0 0 1 .804.25l.153.152a.5.5 0 0 1 .453.227c.293.105.578.21.86.328a.201.201 0 0 1 .1.176 1.176 1.176 0 0 0-.656-.227.58.58 0 0 0-.402-.152c-.234-.149-.473-.301-.707-.453a4.756 4.756 0 0 0-.91-.254.84.84 0 0 0-.504-.25.22.22 0 0 1-.05-.176c-.204.012-.356-.063-.454-.227a.49.49 0 0 1-.406-.203.75.75 0 0 1-.555-.254 21.798 21.798 0 0 0-.808-.328.353.353 0 0 1-.098-.152.531.531 0 0 1-.356-.227 1.712 1.712 0 0 1-.453-.148c-.441-.27-.879-.54-1.312-.809a.92.92 0 0 1-.352-.125Zm0 0" style="stroke:none;fill-rule:evenodd;fill:#0003c1;fill-opacity:1"/>
    </g>
    <g id="hybrid_svg__ay" clip-path="url(#hybrid_svg__q)">
      <path d="M75.379 60.086h.148v.152c-.097 0-.148-.05-.148-.152Zm0 0" style="stroke:none;fill-rule:evenodd;fill:#00fffe;fill-opacity:1"/>
    </g>
    <g id="hybrid_svg__aA" clip-path="url(#hybrid_svg__r)">
      <path d="M86.18 64.879c.093-.012.16.02.199.101a.147.147 0 0 0 .05.125c.15.051.301.086.458.102a.54.54 0 0 0 .453.254c.113.195.281.27.504.227a.22.22 0 0 0 .05.175c.133.043.266.067.403.078a.152.152 0 0 0 .05.149c.118.035.235.062.356.078.184.125.352.277.504.453.168.024.336.035.504.024a.225.225 0 0 0 .05.18c.118.023.235.03.352.023.094 0 .176.023.254.078.461.261.914.527 1.363.804.102.02.204.036.301.051a.498.498 0 0 0 .457.254c.078.086.16.164.25.227.075.14.196.226.356.254.058.199.191.293.402.277.211.117.414.254.606.402.222-.02.406.051.554.203.051.024.098.032.153.024a.327.327 0 0 0 .05.226c.133.028.27.036.403.028a.355.355 0 0 0 .05.226c.223-.02.391.063.504.25.067.028.133.035.204.028a.22.22 0 0 0 .05.175c.118.016.235.036.356.051l.097.203a.705.705 0 0 1 .555.2c.11.02.211.054.305.101.14.098.238.223.305.38a.93.93 0 0 0 .402.05.256.256 0 0 0 .05.203.4.4 0 0 1 .301.2.738.738 0 0 0 .356.05.225.225 0 0 0 .101.227c.114.027.235.035.352.027a.233.233 0 0 0 .027.152.66.66 0 0 1 .325.278c.117.023.234.03.355.023.008.191.11.277.3.254a.172.172 0 0 0 .052.152.59.59 0 0 1 .406.25l.453.102c.113.125.25.226.402.305.047.039.063.09.051.148a.282.282 0 0 1 .254.18.448.448 0 0 0 .203.023.233.233 0 0 0 .098.227c.183.132.383.226.605.277a.235.235 0 0 0 .051.176.634.634 0 0 1 .508.203.28.28 0 0 0 .148.027c.16.059.309.137.457.227a.35.35 0 0 1 .051.226c.164-.011.266.067.3.227.466.187.868.465 1.212.832.125.043.242.094.355.152-.004.164.078.242.25.227.114.183.266.336.457.453.028.062.063.121.098.18a.97.97 0 0 1 .406.175c.192.266.426.477.707.63.028.25.164.402.403.456-.008.051 0 .102.023.149.336.254.64.539.91.86.223.222.406.472.555.757.055.078.133.11.226.102-.03.199.051.285.254.25.043.171.118.32.227.457.086.093.18.175.277.25.114.328.246.648.403.96a.488.488 0 0 0 .152.454c.043.336.066.672.078 1.007.031.07.082.118.148.153.043.34.036.676-.023 1.008a.358.358 0 0 0-.125.101c-.027.27-.035.54-.027.809a.228.228 0 0 0-.227.101 20.633 20.633 0 0 0-.101-1.968.714.714 0 0 1-.301-.504.499.499 0 0 1-.203-.453.59.59 0 0 1-.278-.356.162.162 0 0 0-.152-.05 2.353 2.353 0 0 1-.227-.856.485.485 0 0 1-.226-.305.73.73 0 0 0-.254-.074 6.588 6.588 0 0 1-1.133-1.34.36.36 0 0 0-.23-.05c.02-.184-.067-.266-.25-.25a.229.229 0 0 0-.028-.153.568.568 0 0 1-.328-.227 1.074 1.074 0 0 0-.351-.101.534.534 0 0 0-.403-.227c-.054-.144-.152-.21-.304-.203.015-.152-.051-.219-.204-.203a.432.432 0 0 0-.023-.2.92.92 0 0 0-.684-.355.245.245 0 0 0-.023-.148.524.524 0 0 1-.328-.23.611.611 0 0 0-.352-.075.235.235 0 0 0-.05-.176 1.165 1.165 0 0 1-.305-.101 2.667 2.667 0 0 1-.48-.379 2.227 2.227 0 0 0-.329-.074.24.24 0 0 1-.05-.18c-.153-.008-.301-.027-.454-.047a.225.225 0 0 0-.05-.18c-.133-.023-.266-.03-.403-.023-.015-.21-.133-.305-.355-.277a8.193 8.193 0 0 1-.606-.407.5.5 0 0 1-.504-.25c-.101-.015-.199-.035-.3-.05a.818.818 0 0 0-.606-.203c-.398-.18-.785-.38-1.164-.606a1.217 1.217 0 0 0-.504-.074c-.797-.371-1.586-.75-2.37-1.137a6.65 6.65 0 0 1-.911-.203c-.23-.191-.5-.3-.805-.328a.979.979 0 0 0-.656-.2.16.16 0 0 0-.05-.128 3.94 3.94 0 0 0-.481-.125 1.284 1.284 0 0 0-.73-.227 1.566 1.566 0 0 0-.606-.203 1.502 1.502 0 0 0-.758-.277 7.243 7.243 0 0 1-.707-.38 1.585 1.585 0 0 0-.606-.073c.008-.082-.027-.141-.101-.176-.398-.121-.8-.23-1.211-.328a1.183 1.183 0 0 0-.758-.227.449.449 0 0 0-.199-.152 19.71 19.71 0 0 1-1.215-.305 1.502 1.502 0 0 0-.855-.25.46.46 0 0 1-.203-.152 8.121 8.121 0 0 1-1.415-.254.737.737 0 0 0-.148-.2 3.815 3.815 0 0 0-.656-.1.46.46 0 0 0-.203-.153 12.696 12.696 0 0 1-.657-.102c-.035-.031-.066-.066-.101-.101a2.88 2.88 0 0 0-.606-.098 5.933 5.933 0 0 0-.707-.305c.078-.183.121-.379.125-.582a.449.449 0 0 1 .153-.199 1.64 1.64 0 0 1 .226-.832.284.284 0 0 0-.05-.152.866.866 0 0 0-.301-.028c-.008-.132 0-.27.023-.402a.242.242 0 0 1 .23-.102v-.707h.2a4.1 4.1 0 0 1 .027-.656.147.147 0 0 1 .125-.05c.067 0 .102-.032.102-.098-.008-.254 0-.508.023-.758a.892.892 0 0 1 .18-.102c.047-.234.066-.468.047-.707.238-.039.472-.047.707-.023.058.05.11.11.152.176.215.082.418.183.606.3a.811.811 0 0 0 .554.278c.168.16.367.238.606.23a.166.166 0 0 0 .101.176c.301.14.621.238.961.3.211.098.41.208.606.329Zm0 0" style="stroke:none;fill-rule:evenodd;fill:#007dda;fill-opacity:1"/>
    </g>
    <g id="hybrid_svg__aC" clip-path="url(#hybrid_svg__s)">
      <path d="M85.117 64.172c.043.066.09.125.153.18.242.105.488.214.73.328a.725.725 0 0 1 .18.199 5.641 5.641 0 0 0-.606-.328c-.34-.063-.66-.16-.96-.301a.166.166 0 0 1-.102-.176.803.803 0 0 1-.606-.23.811.811 0 0 1-.554-.278 3.498 3.498 0 0 0-.606-.3.822.822 0 0 0-.152-.176 2.688 2.688 0 0 0-.707.023v-.152c.258-.016.511.008.758.078.48.316.984.586 1.515.805.113.043.235.078.352.101a.745.745 0 0 0 .605.227Zm0 0" style="stroke:none;fill-rule:evenodd;fill:#0295e7;fill-opacity:1"/>
    </g>
    <g id="hybrid_svg__aE" clip-path="url(#hybrid_svg__t)">
      <path d="M81.637 64.68c0 .066-.035.097-.102.097a.142.142 0 0 1 .102-.097Zm0 0" style="stroke:none;fill-rule:evenodd;fill:#00f;fill-opacity:1"/>
    </g>
    <g id="hybrid_svg__aG" clip-path="url(#hybrid_svg__u)">
      <path d="M85.117 64.172a.283.283 0 0 1 .203.129.548.548 0 0 1 .504.226c.13.059.266.098.406.125.028.047.06.09.098.125.203.086.406.172.606.254.09.04.14.106.152.203-.234-.086-.473-.168-.707-.254-.04-.082-.106-.113-.2-.101a.725.725 0 0 0-.179-.2 29.993 29.993 0 0 0-.73-.327.827.827 0 0 1-.153-.18Zm0 0" style="stroke:none;fill-rule:evenodd;fill:#02adf3;fill-opacity:1"/>
    </g>
    <g id="hybrid_svg__aI" clip-path="url(#hybrid_svg__v)">
      <path d="M87.844 65.688c.195.124.394.234.605.328a.61.61 0 0 1 .555.254c.273.152.558.277.86.375a.413.413 0 0 0 .25.203c-.118.007-.235 0-.352-.024a.225.225 0 0 1-.051-.18c-.168.012-.336 0-.504-.023a2.62 2.62 0 0 0-.504-.453 2.22 2.22 0 0 1-.355-.078.152.152 0 0 1-.051-.149 1.788 1.788 0 0 1-.402-.078.22.22 0 0 1-.051-.175Zm0 0" style="stroke:none;fill-rule:evenodd;fill:#008be1;fill-opacity:1"/>
    </g>
    <g id="hybrid_svg__aK" clip-path="url(#hybrid_svg__w)">
      <path d="M86.379 64.98c.234.086.473.168.707.254.152.032.305.075.457.125.156.172.344.309.555.403a3.7 3.7 0 0 1 1.16.554c.172.106.355.18.555.23.039.024.058.056.05.099a4.81 4.81 0 0 1-.86-.375.61.61 0 0 0-.554-.254 4.534 4.534 0 0 1-.605-.329c-.223.043-.39-.03-.504-.226a.54.54 0 0 1-.453-.254 2.036 2.036 0 0 1-.457-.102.147.147 0 0 1-.051-.125Zm0 0" style="stroke:none;fill-rule:evenodd;fill:#029eeb;fill-opacity:1"/>
    </g>
    <g id="hybrid_svg__aM" clip-path="url(#hybrid_svg__x)">
      <path d="M86.934 65.031a.432.432 0 0 1 .457.176c.273.102.543.207.804.328.11.156.262.23.457.227.118.14.266.218.453.226a.447.447 0 0 0 .454.23c.199.145.402.278.605.403.219-.023.367.059.457.254.117.016.234.031.352.05a.22.22 0 0 1 .05.177c.153.023.301.039.454.05v.2c.14-.012.273.007.406.05.07.07.105.153.101.254a.576.576 0 0 1 .504.25.4.4 0 0 1-.203-.023 13.923 13.923 0 0 1-.957-.504.207.207 0 0 1-.05-.176.55.55 0 0 1-.56-.23 9.695 9.695 0 0 0-.855-.328c.008-.043-.011-.075-.05-.098-.2-.05-.383-.125-.555-.23a3.7 3.7 0 0 0-1.16-.555 1.66 1.66 0 0 1-.555-.403 3.976 3.976 0 0 0-.457-.125.238.238 0 0 0-.152-.203Zm0 0" style="stroke:none;fill-rule:evenodd;fill:#03befa;fill-opacity:1"/>
    </g>
    <g id="hybrid_svg__aO" clip-path="url(#hybrid_svg__y)">
      <path d="M89.863 66.645c.293.097.582.207.856.328a.55.55 0 0 0 .558.23.207.207 0 0 0 .051.176c.313.18.629.348.957.504a.4.4 0 0 0 .203.023c.055.086.121.16.2.23.207.079.39.188.558.329a.955.955 0 0 1-.508-.203 1.508 1.508 0 0 1-.25-.227.498.498 0 0 1-.457-.254c-.097-.015-.199-.031-.3-.05-.45-.278-.903-.543-1.364-.805a.424.424 0 0 0-.254-.078.413.413 0 0 1-.25-.203Zm0 0" style="stroke:none;fill-rule:evenodd;fill:#019fec;fill-opacity:1"/>
    </g>
    <g id="hybrid_svg__aQ" clip-path="url(#hybrid_svg__z)">
      <path d="M80.727 66.898h.203v.454h-.203v.757c-.153-.015-.239.051-.25.204a.453.453 0 0 0 .097.378c.227.168.477.27.758.301a.358.358 0 0 1 .152.153c.317.062.637.093.961.101.032.035.067.067.098.102.39.035.762.129 1.113.277.168-.008.336 0 .504.023.27.133.559.207.856.227a.16.16 0 0 0 .05.129c.508.086.98.254 1.414.504.18.062.368.086.555.074-.008.098.024.172.102.227.199.043.402.078.605.101a.358.358 0 0 0 .153.153c.203.023.402.035.605.023a.225.225 0 0 0 .05.18c.216.046.434.09.657.125a.35.35 0 0 0 .102.125c.203.027.406.07.605.129.023.046.059.09.102.125.183.015.367.035.554.05a.292.292 0 0 0 .2.2.807.807 0 0 1 .605.203c.188.027.371.062.559.101a.33.33 0 0 0 .148.153c.152.015.305.03.457.05.05.051.098.102.148.149.383.086.754.195 1.114.328.078.066.16.125.25.18.172.007.34.03.504.074.02.07.062.12.129.152.125.031.25.059.379.074a.33.33 0 0 0 .148.153c.187.027.371.05.559.074a.157.157 0 0 0 .046.152.82.82 0 0 1 .559.227c.18.062.363.09.555.078a.22.22 0 0 0 .05.176c.133.015.27.031.403.05.035.051.066.102.101.149.149.05.297.086.454.102a.666.666 0 0 0 .605.253c.035.051.066.102.102.153.132.023.27.031.402.023a.22.22 0 0 0 .05.176.874.874 0 0 0 .458.078.218.218 0 0 0 .047.176c.296.078.582.18.859.305a.76.76 0 0 0 .555.277c.203.125.406.25.605.375.168-.008.285.059.356.203.203.02.37.102.503.254.114.047.23.074.352.074-.004.082.027.14.102.176.117.027.234.035.355.027a.242.242 0 0 0 .05.203c.114.036.231.059.352.075a.22.22 0 0 1 .051.175.753.753 0 0 1 .453.227c.118.02.239.035.356.05.152.118.304.24.453.356.078.051.16.074.254.074.129.06.262.118.402.176.238.156.457.332.656.531a.31.31 0 0 0 .301.25c.035.051.07.102.102.153a9.76 9.76 0 0 1 1.062.808c.106.118.184.25.227.403a.59.59 0 0 0 .176.078c.285.285.554.59.808.906a.247.247 0 0 0 .149.028.44.44 0 0 0 .23.402c.008.152.082.238.227.254.004.191.105.293.3.3a.906.906 0 0 1 .204.305c.144.285.25.586.328.906.035.036.066.07.101.102.074.492.168.98.278 1.465-.11.433-.204.871-.278 1.312a16.74 16.74 0 0 0-.531 1.059c.027.016.05.035.074.05.125-.097.25-.187.38-.277.222.032.323-.062.304-.277a.22.22 0 0 0 .176-.05.8.8 0 0 1 .254-.403.694.694 0 0 0 .023-.254.22.22 0 0 0 .176-.05c.05-.15.086-.298.101-.454l.153-.152c.054-.301.09-.602.101-.91.219-.32.219-.641 0-.957-.015-.254-.035-.504-.05-.758a1.669 1.669 0 0 1-.278-.707c.047.023.09.058.125.101.27.57.477 1.157.633 1.766h.25v1.21h-.149c-.07 0-.101.036-.101.102v.606h-.203c.008.137 0 .27-.024.406a.36.36 0 0 1-.23.05c.008.153 0 .302-.024.454a.332.332 0 0 1-.226.05c.008.138 0 .27-.028.403a.22.22 0 0 1-.175.051c.035.203-.051.285-.25.254a.661.661 0 0 1-.102.402 9.433 9.433 0 0 1-.406.48c-.063.024-.133.032-.2.024v.254h-.253v.25h-.203v.203h-.25v.254h-.254v.25h-.203v.203h-.25v.254h-.254a.23.23 0 0 1-.051.2.297.297 0 0 0-.2.202.363.363 0 0 1-.253.051.22.22 0 0 1-.051.176.92.92 0 0 1-.352.078c.016.184-.066.266-.253.25v.203h-.254a.218.218 0 0 1-.047.176.729.729 0 0 1-.406.074c.02.188-.067.27-.25.254v.203h-.356c-.066 0-.102.032-.102.102v.148h-.25v.203H105.356v.204a.356.356 0 0 1-.25.05v.25h-.453v.203h-.254v.25h-.453v.254h-.254a.22.22 0 0 1-.05.176 1.54 1.54 0 0 1-.403.027v.25h-.457c.035.204-.047.29-.25.254v.204h-.453v.25h-.254a.22.22 0 0 1-.05.175.948.948 0 0 1-.403.078v.204h-.457a.33.33 0 0 1-.047.226.524.524 0 0 0-.355.227.992.992 0 0 1-.301.05.235.235 0 0 1-.05.176c-.153.024-.306.031-.458.024v.254h-.453v.152c-.055.09-.137.121-.254.101v.2h-.453v.254c-.234-.055-.402.023-.504.226a.45.45 0 0 1-.203.028.22.22 0 0 1-.05.175 1.729 1.729 0 0 1-.403.024.327.327 0 0 1-.051.226c-.133.028-.27.035-.402.028-.008.191-.11.277-.305.25h-.2v.152a.351.351 0 0 1-.253.05.327.327 0 0 1-.05.227c-.134.028-.27.035-.403.028v.199a4.542 4.542 0 0 1-.457.05v.204h-.25a.22.22 0 0 1-.051.176.966.966 0 0 1-.406.078v.199c-.153 0-.305.02-.453.05a.22.22 0 0 1-.051.176c-.149.028-.301.036-.453.028v.25h-.254v.203h-.453v.254h-.454v.25H91.984v.152a.351.351 0 0 1-.254.051.327.327 0 0 1-.05.227c-.133.027-.27.035-.403.027a.355.355 0 0 1-.05.226c-.137.016-.27.032-.407.051a.22.22 0 0 0-.05.176h-.25a.22.22 0 0 1-.051.176.96.96 0 0 1-.403.078.244.244 0 0 1-.05.2.956.956 0 0 1-.407.05v.203h-.453v.25a.385.385 0 0 0-.254.05.468.468 0 0 1-.453.204.22.22 0 0 1-.05.176 1.54 1.54 0 0 1-.403.027.332.332 0 0 1-.05.227c-.118.023-.235.03-.356.023-.067 0-.098.035-.098.102v.152h-.254v.203h-.453v.25h-.457a.325.325 0 0 1-.047.227.636.636 0 0 0-.406.203.607.607 0 0 1-.25.023.242.242 0 0 1-.102.23c-.117.024-.234.032-.355.024v.203c-.164.035-.332.051-.504.051v.2h-.454v.202a.351.351 0 0 1-.253.051v.203c-.148.024-.3.04-.453.051v.2h-.453v.253c-.172-.035-.29.024-.356.176a2.255 2.255 0 0 1-.351.074.229.229 0 0 1-.051.18c-.133.023-.27.031-.406.023a.364.364 0 0 1-.047.203c-.149.047-.3.067-.457.051v.2a.434.434 0 0 0-.2.027.42.42 0 0 1-.152.203c-.117.023-.234.031-.355.023a.308.308 0 0 1-.051.227c-.133.027-.266.035-.402.027v.2h-.453v.253a.363.363 0 0 0-.254.051.469.469 0 0 1-.454.2.225.225 0 0 1-.05.18c-.153.022-.301.03-.453.022v.254h-.457v.25h-.25a.229.229 0 0 1-.051.18c-.133.024-.27.031-.403.024a.35.35 0 0 1-.05.226c-.137.027-.27.035-.407.027a.312.312 0 0 1-.05.227c-.118.016-.235.031-.352.05a.355.355 0 0 1-.305.227.791.791 0 0 1-.101.176 1.54 1.54 0 0 1-.403.027.312.312 0 0 1-.05.227c-.133.023-.266.031-.403.023v.204H74.824v.203a.35.35 0 0 1-.254.047v.203c-.152.023-.3.039-.453.05v.204h-.457c.024.222-.078.304-.3.25h-.204v.152c-.05.09-.136.121-.25.102v.203h-.457v.25h-.453c.02.215-.082.308-.305.277a.362.362 0 0 1-.402.176.249.249 0 0 1-.05.203.938.938 0 0 1-.403.05v.204a4.403 4.403 0 0 1-.504.05v.2h-.457v.203a.341.341 0 0 1-.25.05v.204a4.542 4.542 0 0 0-.457.05v.2h-.453c.031.195-.05.289-.25.277-.086.153-.223.219-.406.203a4.92 4.92 0 0 1-.102.203c-.137.008-.27.032-.402.075a.337.337 0 0 0-.051.203h-.453v.199h-.254a.229.229 0 0 1-.05.18.945.945 0 0 1-.403.074.256.256 0 0 1-.051.203 1.003 1.003 0 0 1-.402.05v.2h-.457a.337.337 0 0 1-.051.203c-.453.05-.906.067-1.36.05-.011-.522 0-1.042.024-1.565.05-.04.11-.06.176-.051.004-.235.02-.469.05-.703h.204c-.008-.204 0-.407.023-.606a.213.213 0 0 1 .227-.101c-.008-.204 0-.407.027-.606a.388.388 0 0 1 .125-.101c.027-.184.078-.352.152-.504h.153v-.153c-.008-.168 0-.336.023-.504a.312.312 0 0 1 .227-.05c-.016-.223 0-.442.05-.657a1.23 1.23 0 0 1 .102-.05c.043-.184.066-.368.074-.555a.378.378 0 0 1 .203-.152 4.1 4.1 0 0 0 .028-.657h.25v-.707h.203a3.89 3.89 0 0 1 .05-.707h.204a3.49 3.49 0 0 1 .023-.605.219.219 0 0 1 .227-.102c-.008-.183 0-.37.027-.554a.33.33 0 0 1 .148-.153c.02-.148.036-.3.051-.453a.131.131 0 0 1 .078-.05h.149v-.153c-.008-.168 0-.336.027-.504a.35.35 0 0 1 .227-.05c-.008-.22 0-.438.023-.657a.25.25 0 0 1 .18-.05c-.008-.2 0-.403.023-.606a.963.963 0 0 1 .176-.098c.05-.219.07-.437.05-.656a.35.35 0 0 0 .227-.05 4.1 4.1 0 0 0 .028-.657h.203a3.298 3.298 0 0 1 .05-.707h.2c-.008-.203 0-.406.027-.606a.21.21 0 0 1 .227-.101 3.28 3.28 0 0 1 .023-.555.358.358 0 0 1 .153-.152c.015-.153.035-.301.05-.453a.77.77 0 0 0 .203-.153c.016-.183.032-.37.051-.554a.322.322 0 0 1 .227-.051c-.012-.219 0-.438.023-.656a.22.22 0 0 1 .176-.051c-.016-.223 0-.442.05-.656a.337.337 0 0 1 .204-.051v-.657a.22.22 0 0 0 .176-.05c.054-.215.082-.434.078-.657h.199c-.008-.199 0-.402.027-.605a.222.222 0 0 1 .227-.102c-.008-.199 0-.402.023-.605.036-.074.098-.106.18-.098-.012-.21.023-.414.098-.605a.528.528 0 0 1 .129-.102c.015-.152.03-.304.05-.457a.664.664 0 0 0 .2-.148c.027-.203.035-.406.027-.606h.2a3.549 3.549 0 0 1 .05-.707h.203c-.008-.218 0-.437.024-.656a.318.318 0 0 1 .23-.05c-.02-.223 0-.442.05-.657l.098-.05c.051-.22.082-.438.102-.657a.22.22 0 0 0 .176-.05c.011-.204.039-.407.078-.606a.249.249 0 0 1 .203-.051 3.49 3.49 0 0 1 .023-.606.707.707 0 0 0 .204-.554c.02-.028.043-.047.074-.051h.152V87.793h.25v-.707h.203c-.008-.203 0-.402.028-.606.05-.082.125-.113.226-.101-.012-.219 0-.438.024-.656a.355.355 0 0 1 .226-.051c-.015-.219 0-.438.051-.656.035-.016.066-.032.102-.047a7.62 7.62 0 0 0 .101-.656.22.22 0 0 0 .176-.051c.012-.207.039-.407.074-.606a.242.242 0 0 1 .203-.05c-.008-.204 0-.407.028-.606a.71.71 0 0 0 .199-.555.711.711 0 0 0 .203-.152c.023-.203.035-.402.023-.606h.254v-.707h.203c-.007-.218 0-.437.024-.656a.332.332 0 0 1 .226-.05 4.1 4.1 0 0 1 .028-.657.327.327 0 0 1 .226-.05c-.015-.223 0-.442.051-.657.035-.015.066-.035.102-.05.043-.22.074-.438.101-.657a.22.22 0 0 0 .176-.05c.023-.15.031-.301.023-.454h.254v-.203a1.27 1.27 0 0 1 .051-.504h.152v-.152c-.011-.168 0-.336.024-.504a.355.355 0 0 1 .226-.05v-.708h.204c.007-.234.023-.469.05-.707h.2c-.008-.219 0-.437.027-.652a.308.308 0 0 1 .226-.051c-.007-.223 0-.441.024-.656a.233.233 0 0 1 .18-.051c-.008-.18.007-.356.05-.531a.184.184 0 0 1 .149-.176c.043-.219.078-.438.101-.656a.22.22 0 0 0 .176-.051c.02-.152.035-.305.05-.453a.262.262 0 0 1 .13-.203.714.714 0 0 1 .277-.606c.024-.203.031-.402.024-.605h.254v-.707h.199a3.89 3.89 0 0 1 .05-.707h.204a4.1 4.1 0 0 1 .027-.657.344.344 0 0 1 .227-.05c-.02-.22 0-.438.05-.657.032-.015.067-.03.098-.05l.102-.454Zm0 0" style="stroke:none;fill-rule:evenodd;fill:#0ae;fill-opacity:1"/>
    </g>
    <g id="hybrid_svg__aS" clip-path="url(#hybrid_svg__A)">
      <path d="M94 68.867c.07-.008.137 0 .203.024.152.144.34.214.555.203.035.05.066.101.101.152a.998.998 0 0 1 .454.25c.218.094.44.176.656.254.187.152.37.305.554.453.102.035.204.07.305.102.168.132.336.27.504.406.367.148.703.344 1.008.578a.97.97 0 0 1-.3-.023.656.656 0 0 0-.556-.329 12.107 12.107 0 0 1-.453-.328.51.51 0 0 1-.406-.254c-.066-.015-.133-.035-.2-.05a5.753 5.753 0 0 0-1.214-.758.5.5 0 0 0-.453-.2c-.254-.163-.508-.32-.758-.48Zm0 0" style="stroke:none;fill-rule:evenodd;fill:#02a8f1;fill-opacity:1"/>
    </g>
    <g id="hybrid_svg__aU" clip-path="url(#hybrid_svg__B)">
      <path d="M92.738 68.262a.955.955 0 0 0 .508.203c.16.11.344.168.555.176.078.07.144.144.199.226.25.16.504.317.758.48a.5.5 0 0 1 .453.2c.437.203.84.453 1.215.758.066.015.133.035.199.05a.51.51 0 0 0 .406.254c.149.114.301.223.453.329a.656.656 0 0 1 .555.328.97.97 0 0 0 .3.023c.2.18.419.332.657.453.09.192.242.29.457.305v.203c.152-.008.305 0 .453.023.281.2.551.41.809.633.113.043.23.078.351.098 0 .035.016.05.051.05a2 2 0 0 1 .656.532c.188.086.372.172.555.254.035.05.063.11.078.176.106.066.2.148.278.25a.54.54 0 0 0 .351.101c-.008.04.004.07.028.102.18.07.32.191.425.355a.28.28 0 0 1-.148-.027.634.634 0 0 0-.508-.203.235.235 0 0 1-.05-.176 1.644 1.644 0 0 1-.606-.277.233.233 0 0 1-.098-.227.448.448 0 0 1-.203-.023.282.282 0 0 0-.254-.18.144.144 0 0 0-.05-.148 1.404 1.404 0 0 1-.403-.305l-.453-.102a.59.59 0 0 0-.406-.25.172.172 0 0 1-.051-.152c-.192.023-.293-.063-.301-.254-.121.008-.238 0-.355-.023a.66.66 0 0 0-.325-.278c-.027-.05-.035-.097-.027-.152-.117.008-.238 0-.352-.027a.225.225 0 0 1-.101-.227.738.738 0 0 1-.356-.05.4.4 0 0 0-.3-.2.256.256 0 0 1-.051-.203.93.93 0 0 1-.403-.05.851.851 0 0 0-.304-.38 1.119 1.119 0 0 0-.305-.101.705.705 0 0 0-.555-.2c-.03-.066-.066-.136-.097-.203-.121-.015-.239-.035-.356-.05a.22.22 0 0 1-.05-.176.403.403 0 0 1-.204-.028.494.494 0 0 0-.504-.25.355.355 0 0 1-.05-.226c-.133.008-.27 0-.403-.028a.327.327 0 0 1-.05-.226.257.257 0 0 1-.153-.024.657.657 0 0 0-.554-.203 4.789 4.789 0 0 0-.606-.402c-.21.016-.344-.078-.402-.277a.474.474 0 0 1-.356-.254Zm0 0" style="stroke:none;fill-rule:evenodd;fill:#0087e0;fill-opacity:1"/>
    </g>
    <g id="hybrid_svg__aW" clip-path="url(#hybrid_svg__C)">
      <path d="M98.34 71.29a.88.88 0 0 0 .355.124c.149.16.317.285.504.379.133.047.27.09.403.129.359.32.765.582 1.214.781.09.102.176.203.25.3a1.803 1.803 0 0 1-.351-.097 10.687 10.687 0 0 0-.809-.633 2.19 2.19 0 0 0-.453-.023v-.203a.507.507 0 0 1-.457-.305 3.024 3.024 0 0 1-.656-.453Zm0 0" style="stroke:none;fill-rule:evenodd;fill:#03a9f0;fill-opacity:1"/>
    </g>
    <g id="hybrid_svg__aY" clip-path="url(#hybrid_svg__D)">
      <path d="M101.117 73.055a.923.923 0 0 1 .356.078c.05.144.152.219.3.226v.153a.32.32 0 0 1 .356.175c.183.02.32.114.402.278.41.137.762.355 1.059.656.18.02.297.113.355.277.157.137.34.239.555.301.379.348.781.656 1.21.934a.898.898 0 0 1 .103.203 74.597 74.597 0 0 1-2.778-1.969.54.54 0 0 1-.351-.101 1.054 1.054 0 0 0-.278-.25.514.514 0 0 0-.078-.176c-.183-.082-.367-.168-.555-.254a2 2 0 0 0-.656-.531Zm0 0" style="stroke:none;fill-rule:evenodd;fill:#03b0f4;fill-opacity:1"/>
    </g>
    <g id="hybrid_svg__ba" clip-path="url(#hybrid_svg__E)">
      <path d="M77.398 76.84v.152h-.152c0-.101.05-.152.152-.152Zm0 0" style="stroke:none;fill-rule:evenodd;fill:#007fff;fill-opacity:1"/>
    </g>
    <g id="hybrid_svg__bc" clip-path="url(#hybrid_svg__F)">
      <path d="M77.195 77.496v.203h-.254c.028-.14.11-.21.254-.203Zm0 0" style="stroke:none;fill-rule:evenodd;fill:#0099fe;fill-opacity:1"/>
    </g>
    <g id="hybrid_svg__be" clip-path="url(#hybrid_svg__G)">
      <path d="M112.273 85.672c0 .07-.035.101-.101.101 0-.066.031-.101.101-.101Zm0 0" style="stroke:none;fill-rule:evenodd;fill:#00fffe;fill-opacity:1"/>
    </g>
    <g id="hybrid_svg__bg" clip-path="url(#hybrid_svg__H)">
      <path d="M73.41 88.348v.152h-.152c0-.102.05-.152.152-.152Zm0 0" style="stroke:none;fill-rule:evenodd;fill:#007fff;fill-opacity:1"/>
    </g>
    <g id="hybrid_svg__bi" clip-path="url(#hybrid_svg__I)">
      <path d="M106.164 92.488c0 .067-.035.102-.102.102 0-.07.036-.102.102-.102Zm0 0" style="stroke:none;fill-rule:evenodd;fill:#00fffe;fill-opacity:1"/>
    </g>
    <g id="hybrid_svg__bk" clip-path="url(#hybrid_svg__J)">
      <path d="M105.559 92.941c-.024.114-.09.184-.204.204v-.204h.204Zm0 0" style="stroke:none;fill-rule:evenodd;fill:#0183fd;fill-opacity:1"/>
    </g>
    <g id="hybrid_svg__bm" clip-path="url(#hybrid_svg__K)">
      <path d="M99.453 96.727a.238.238 0 0 1-.203.152v-.152h.203Zm0 0" style="stroke:none;fill-rule:evenodd;fill:#007fff;fill-opacity:1"/>
    </g>
    <g id="hybrid_svg__bo" clip-path="url(#hybrid_svg__L)">
      <path d="M96.625 98.39a.238.238 0 0 1-.2.153v-.152h.2Zm0 0" style="stroke:none;fill-rule:evenodd;fill:#007fff;fill-opacity:1"/>
    </g>
    <g id="hybrid_svg__bq" clip-path="url(#hybrid_svg__M)">
      <path d="M92.133 100.965c0 .101-.051.152-.149.152v-.152h.149Zm0 0" style="stroke:none;fill-rule:evenodd;fill:#007fff;fill-opacity:1"/>
    </g>
    <g id="hybrid_svg__bs" clip-path="url(#hybrid_svg__N)">
      <path d="M87.59 103.54c0 .065-.031.1-.098.1 0-.066.031-.1.098-.1Zm0 0" style="stroke:none;fill-rule:evenodd;fill:#00fffe;fill-opacity:1"/>
    </g>
    <g id="hybrid_svg__bu" clip-path="url(#hybrid_svg__O)">
      <path d="M84.41 105.406a.297.297 0 0 1-.2.203v-.203h.2Zm0 0" style="stroke:none;fill-rule:evenodd;fill:#007fff;fill-opacity:1"/>
    </g>
    <g id="hybrid_svg__bw" clip-path="url(#hybrid_svg__P)">
      <path d="M67.3 105.96v.153h-.148c0-.101.051-.152.149-.152Zm0 0" style="stroke:none;fill-rule:evenodd;fill:#007fff;fill-opacity:1"/>
    </g>
    <g id="hybrid_svg__by" clip-path="url(#hybrid_svg__Q)">
      <path d="M74.973 110.809a.246.246 0 0 1-.149.203v-.203h.149Zm0 0" style="stroke:none;fill-rule:evenodd;fill:#007fff;fill-opacity:1"/>
    </g>
    <g id="hybrid_svg__bA" clip-path="url(#hybrid_svg__R)">
      <path d="M73.36 111.766a.238.238 0 0 1-.204.152v-.152h.203Zm0 0" style="stroke:none;fill-rule:evenodd;fill:#007fff;fill-opacity:1"/>
    </g>
    <g id="hybrid_svg__bC" clip-path="url(#hybrid_svg__S)">
      <path d="M65.184 112.07v.153h-.153c0-.102.051-.153.153-.153Zm0 0" style="stroke:none;fill-rule:evenodd;fill:#007fff;fill-opacity:1"/>
    </g>
    <g id="hybrid_svg__bE" clip-path="url(#hybrid_svg__T)">
      <path d="M70.078 113.633a.31.31 0 0 1-.203.203v-.203h.203Zm0 0" style="stroke:none;fill-rule:evenodd;fill:#007fff;fill-opacity:1"/>
    </g>
    <filter id="hybrid_svg__a" width="100%" height="100%" x="0%" y="0%" filterUnits="objectBoundingBox">
      <feColorMatrix in="SourceGraphic" values="0 0 0 0 1 0 0 0 0 1 0 0 0 0 1 0 0 0 1 0"/>
    </filter>
  </defs>
  <use xlink:href="#hybrid_svg__U" mask="url(#hybrid_svg__V)"/>
  <use xlink:href="#hybrid_svg__W" mask="url(#hybrid_svg__X)"/>
  <use xlink:href="#hybrid_svg__Y" mask="url(#hybrid_svg__Z)"/>
  <use xlink:href="#hybrid_svg__aa" mask="url(#hybrid_svg__ab)"/>
  <use xlink:href="#hybrid_svg__ac" mask="url(#hybrid_svg__ad)"/>
  <use xlink:href="#hybrid_svg__ae" mask="url(#hybrid_svg__af)"/>
  <use xlink:href="#hybrid_svg__ag" mask="url(#hybrid_svg__ah)"/>
  <use xlink:href="#hybrid_svg__ai" mask="url(#hybrid_svg__aj)"/>
  <use xlink:href="#hybrid_svg__ak" mask="url(#hybrid_svg__al)"/>
  <use xlink:href="#hybrid_svg__am" mask="url(#hybrid_svg__an)"/>
  <use xlink:href="#hybrid_svg__ao" mask="url(#hybrid_svg__ap)"/>
  <use xlink:href="#hybrid_svg__aq" mask="url(#hybrid_svg__ar)"/>
  <use xlink:href="#hybrid_svg__as" mask="url(#hybrid_svg__at)"/>
  <use xlink:href="#hybrid_svg__au" mask="url(#hybrid_svg__av)"/>
  <use xlink:href="#hybrid_svg__aw" mask="url(#hybrid_svg__ax)"/>
  <use xlink:href="#hybrid_svg__ay" mask="url(#hybrid_svg__az)"/>
  <use xlink:href="#hybrid_svg__aA" mask="url(#hybrid_svg__aB)"/>
  <use xlink:href="#hybrid_svg__aC" mask="url(#hybrid_svg__aD)"/>
  <use xlink:href="#hybrid_svg__aE" mask="url(#hybrid_svg__aF)"/>
  <use xlink:href="#hybrid_svg__aG" mask="url(#hybrid_svg__aH)"/>
  <use xlink:href="#hybrid_svg__aI" mask="url(#hybrid_svg__aJ)"/>
  <use xlink:href="#hybrid_svg__aK" mask="url(#hybrid_svg__aL)"/>
  <use xlink:href="#hybrid_svg__aM" mask="url(#hybrid_svg__aN)"/>
  <use xlink:href="#hybrid_svg__aO" mask="url(#hybrid_svg__aP)"/>
  <use xlink:href="#hybrid_svg__aQ" mask="url(#hybrid_svg__aR)"/>
  <path d="M80.477 68.313c.027.113.078.222.148.328.191.05.375.12.559.199.515.117 1.039.219 1.562.305.074.035.11.093.102.175.136-.007.27 0 .402.028a.936.936 0 0 0 .406.277 3.698 3.698 0 0 0-1.113-.277c-.031-.035-.066-.067-.098-.102a5.648 5.648 0 0 1-.96-.101.358.358 0 0 0-.153-.153 1.532 1.532 0 0 1-.758-.3.453.453 0 0 1-.097-.38Zm0 0" style="stroke:none;fill-rule:evenodd;fill:#009ce8;fill-opacity:1"/>
  <use xlink:href="#hybrid_svg__aS" mask="url(#hybrid_svg__aT)"/>
  <path d="M80.93 66.695a.866.866 0 0 1 .3.028.284.284 0 0 1 .051.152 1.64 1.64 0 0 0-.226.832.449.449 0 0 0-.153.2 1.555 1.555 0 0 1-.125.581c.243.086.477.188.707.305.207.012.407.043.606.098.035.035.066.07.101.101.22.04.438.074.657.102a.46.46 0 0 1 .203.152c.219.016.437.047.656.102.063.058.11.125.148.199.461.125.93.21 1.415.254a.46.46 0 0 0 .203.152c.312-.004.597.082.855.25.399.113.8.215 1.215.305a.449.449 0 0 1 .2.152c.28-.012.534.067.757.227.41.097.813.207 1.21.328.075.035.11.094.103.176.207-.016.41.011.605.074.23.14.465.265.707.379a7.148 7.148 0 0 1-1.766-.528c-.25 0-.484-.05-.707-.152-.035-.05-.066-.102-.101-.152a93.535 93.535 0 0 0-3.535-1.137 2.263 2.263 0 0 1-.856-.227 2.723 2.723 0 0 0-.504-.023.936.936 0 0 1-.406-.277c-.133-.028-.266-.035-.402-.028.007-.082-.028-.14-.102-.175a26.267 26.267 0 0 1-1.562-.305 4.136 4.136 0 0 0-.559-.2 1.028 1.028 0 0 1-.148-.328c.011-.152.097-.218.25-.203v-.757h.203v-.454h-.203c-.016-.152.05-.218.203-.203Zm0 0" style="stroke:none;fill-rule:evenodd;fill:#008ce1;fill-opacity:1"/>
  <use xlink:href="#hybrid_svg__aU" mask="url(#hybrid_svg__aV)"/>
  <use xlink:href="#hybrid_svg__aW" mask="url(#hybrid_svg__aX)"/>
  <use xlink:href="#hybrid_svg__aY" mask="url(#hybrid_svg__aZ)"/>
  <path d="M85.016 69.875c1.199.36 2.375.738 3.535 1.137.035.05.066.101.101.152.223.102.457.152.707.152.559.25 1.149.426 1.766.528.281.023.531.117.758.277.219.027.418.094.605.203.274.004.516.078.73.227.165.031.325.074.481.125a.16.16 0 0 1 .051.129c.188.05.355.144.504.277.734.25 1.457.516 2.172.809.031.046.066.097.097.148.223.012.442.047.657.102a.358.358 0 0 0 .152.152c.117.016.234.035.356.05.03.052.066.102.097.153.488.2.977.395 1.465.578.379.114.746.242 1.11.38.292.214.613.374.96.48.172.14.36.265.555.379a2.5 2.5 0 0 0 .758.3c.203.157.422.293.656.407.102.015.2.03.3.05.036.082.067.168.102.25a.48.48 0 0 1 .204.078c.152.122.304.247.453.375.113.055.23.086.351.102.043.05.063.11.051.176.234 0 .402.101.508.304a.449.449 0 0 1-.254-.074c-.149-.117-.3-.238-.453-.355-.117-.016-.239-.031-.356-.051a.753.753 0 0 0-.453-.227.22.22 0 0 0-.05-.175 2.08 2.08 0 0 1-.352-.075.242.242 0 0 1-.05-.203c-.122.008-.24 0-.356-.027-.075-.035-.106-.094-.102-.176a.915.915 0 0 1-.352-.074.735.735 0 0 0-.503-.254c-.07-.144-.188-.21-.356-.203l-.605-.375a.76.76 0 0 1-.555-.277 5.475 5.475 0 0 0-.86-.305.218.218 0 0 1-.046-.176.874.874 0 0 1-.457-.078.22.22 0 0 1-.051-.176c-.133.008-.27 0-.402-.023-.036-.051-.067-.102-.102-.153a.666.666 0 0 1-.606-.253 2.003 2.003 0 0 1-.453-.102c-.035-.047-.066-.098-.101-.148-.133-.02-.27-.036-.403-.051a.22.22 0 0 1-.05-.176 1.406 1.406 0 0 1-.555-.078.82.82 0 0 0-.559-.227.157.157 0 0 1-.046-.152 27.344 27.344 0 0 1-.56-.074.33.33 0 0 1-.147-.153 3.092 3.092 0 0 1-.38-.074.229.229 0 0 1-.128-.152 2.414 2.414 0 0 0-.504-.074 1.935 1.935 0 0 1-.25-.18 8.713 8.713 0 0 0-1.114-.328c-.05-.047-.097-.098-.148-.149-.152-.02-.305-.035-.457-.05a.33.33 0 0 1-.148-.153 9.321 9.321 0 0 0-.559-.101.807.807 0 0 0-.605-.203.292.292 0 0 1-.2-.2c-.187-.015-.37-.035-.554-.05a.388.388 0 0 1-.102-.125 4.077 4.077 0 0 0-.605-.13.35.35 0 0 1-.102-.124 11.468 11.468 0 0 1-.656-.125.225.225 0 0 1-.051-.18 3.49 3.49 0 0 1-.605-.023.358.358 0 0 1-.153-.153 6.314 6.314 0 0 1-.605-.101c-.078-.055-.11-.13-.102-.227a1.413 1.413 0 0 1-.555-.074 4.22 4.22 0 0 0-1.414-.504.16.16 0 0 1-.05-.129Zm0 0" style="stroke:none;fill-rule:evenodd;fill:#00a0e9;fill-opacity:1"/>
  <path d="M93.75 72.805a.979.979 0 0 1 .656.199c.305.027.574.137.805.328.3.09.602.156.91.203.785.387 1.574.766 2.371 1.137.11.039.23.07.356.101.132.11.265.211.402.301a56.885 56.885 0 0 1-1.465-.578c-.031-.05-.066-.101-.097-.152-.122-.016-.239-.035-.356-.051a.358.358 0 0 1-.152-.152 3.375 3.375 0 0 0-.657-.102c-.03-.05-.066-.102-.097-.148a38.032 38.032 0 0 0-2.172-.809 1.233 1.233 0 0 0-.504-.277Zm0 0" style="stroke:none;fill-rule:evenodd;fill:#0092e3;fill-opacity:1"/>
  <path d="M103.035 74.367c.914.68 1.84 1.336 2.778 1.969 0 .059.019.105.05.152a2.63 2.63 0 0 0-.355-.152 3.362 3.362 0 0 0-1.211-.832c-.035-.16-.137-.238-.3-.227a.35.35 0 0 0-.052-.226 2.618 2.618 0 0 0-.457-.227.88.88 0 0 0-.425-.355c-.024-.031-.036-.063-.028-.102Zm0 0" style="stroke:none;fill-rule:evenodd;fill:#0199e9;fill-opacity:1"/>
  <path d="M98.492 74.672c.176-.012.344.016.504.074.379.227.766.426 1.164.606a.818.818 0 0 1 .606.203c.101.015.199.035.3.05a.5.5 0 0 0 .504.25c.2.149.403.282.606.407.222-.028.34.066.355.277.137-.008.27 0 .403.023.043.051.058.11.05.18.153.02.301.04.454.047a.24.24 0 0 0 .05.18c.114.015.223.043.328.074.145.144.305.27.48.379.099.047.196.082.306.101.039.051.058.11.05.176a.611.611 0 0 1 .352.074.524.524 0 0 0 .328.23.245.245 0 0 1 .023.15.92.92 0 0 1 .684.355.432.432 0 0 1 .023.199c.153-.016.22.05.204.203.152-.008.25.059.304.203.168.016.305.09.403.227.125.015.242.047.351.101a.568.568 0 0 0 .328.227c.028.047.035.098.028.152.183-.015.27.067.25.25a.36.36 0 0 1 .23.051c.313.492.692.938 1.133 1.34a.73.73 0 0 1 .254.074c.035.133.11.235.226.305.024.305.098.59.227.855a.162.162 0 0 1 .152.051.59.59 0 0 0 .278.356.499.499 0 0 0 .203.453c.027.21.129.379.3.504.067.652.098 1.308.102 1.968a.228.228 0 0 1 .227-.101c-.008-.27 0-.54.027-.809a.358.358 0 0 1 .125-.101 3.35 3.35 0 0 0 .023-1.008.313.313 0 0 1-.148-.153 10.938 10.938 0 0 0-.078-1.007.488.488 0 0 1-.152-.453c.046.07.109.136.18.199.081.375.183.746.3 1.113.035.52.035 1.043 0 1.563-.137.472-.32.93-.555 1.363a.644.644 0 0 1-.226.254l-.051-.153c.043-.171.102-.34.176-.504.035-.574.035-1.144 0-1.718-.012-.125-.07-.207-.176-.25a.941.941 0 0 0-.277-.606l-.051-.304a1.219 1.219 0 0 1-.277-.403.906.906 0 0 0-.204-.304 6.223 6.223 0 0 1-.226-.606c-.3-.387-.621-.754-.957-1.11a3.575 3.575 0 0 1-.883-.831 2.085 2.085 0 0 1-.758-.606c-.066-.02-.136-.035-.203-.05a3.034 3.034 0 0 0-.555-.38 4.11 4.11 0 0 0-.656-.53c-.14-.06-.273-.118-.402-.177a.531.531 0 0 0-.508-.304.207.207 0 0 0-.05-.176 1.132 1.132 0 0 1-.352-.102 13.55 13.55 0 0 0-.453-.375.48.48 0 0 0-.204-.078c-.035-.082-.066-.168-.101-.25-.102-.02-.2-.035-.3-.05a3.758 3.758 0 0 1-.657-.407 2.5 2.5 0 0 1-.758-.3 4.208 4.208 0 0 1-.555-.38 3.17 3.17 0 0 1-.96-.48c-.364-.137-.731-.266-1.11-.379a4.68 4.68 0 0 1-.402-.3 3.859 3.859 0 0 1-.356-.102Zm0 0" style="stroke:none;fill-rule:evenodd;fill:#0085de;fill-opacity:1"/>
  <use xlink:href="#hybrid_svg__ba" mask="url(#hybrid_svg__bb)"/>
  <use xlink:href="#hybrid_svg__bc" mask="url(#hybrid_svg__bd)"/>
  <path d="M105.863 76.488c.41.192.762.461 1.059.809.113.078.23.148.351.2.223.222.426.456.606.706-.031-.016-.067-.031-.098-.05a2.095 2.095 0 0 1-.707-.63.97.97 0 0 0-.406-.175 1.599 1.599 0 0 1-.098-.18 1.37 1.37 0 0 1-.457-.453c-.172.015-.254-.063-.25-.227Zm0 0" style="stroke:none;fill-rule:evenodd;fill:#02a5ef;fill-opacity:1"/>
  <path d="M107.273 77.496h.204a.229.229 0 0 0 .05.18c.344.273.688.55 1.035.832.313.387.649.758 1.008 1.11.008.148.082.214.227.202v.301a.229.229 0 0 1 .18.05.92.92 0 0 1 .074.356c-.34-.406-.668-.824-.985-1.261l-.48-.282a13.158 13.158 0 0 0-.707-.78 5.737 5.737 0 0 0-.606-.708Zm0 0" style="stroke:none;fill-rule:evenodd;fill:#03bdfa;fill-opacity:1"/>
  <path d="M106.316 79.063c.196.101.38.23.555.378.067.016.137.032.203.051.203.262.457.461.758.606.246.328.543.605.883.832.336.355.656.722.957 1.11.066.206.14.41.226.605-.195-.008-.296-.11-.3-.301-.145-.016-.22-.102-.227-.254a.44.44 0 0 1-.23-.403.247.247 0 0 1-.149-.027 11.152 11.152 0 0 0-.808-.906.59.59 0 0 1-.176-.078 1.005 1.005 0 0 0-.227-.403 9.76 9.76 0 0 0-1.062-.808 3.438 3.438 0 0 0-.102-.153.31.31 0 0 1-.3-.25Zm0 0" style="stroke:none;fill-rule:evenodd;fill:#009de8;fill-opacity:1"/>
  <path d="M107.781 78.152c.031.02.067.035.098.051.25.254.484.516.707.781l.48.282c.317.437.645.855.985 1.261a.19.19 0 0 1 .176.098c.109.219.246.422.406.605a.448.448 0 0 1 .023.204 2.083 2.083 0 0 1-.277-.25 1.169 1.169 0 0 1-.227-.457c-.203.035-.285-.051-.254-.25a.235.235 0 0 1-.226-.102 3.055 3.055 0 0 0-.555-.758 5.581 5.581 0 0 0-.91-.86c-.023-.046-.031-.097-.023-.148-.239-.054-.375-.207-.403-.457Zm0 0" style="stroke:none;fill-rule:evenodd;fill:#0194e6;fill-opacity:1"/>
  <path d="M111.313 82.543c.035.02.066.035.101.05.04.262.133.497.277.708.016.254.036.504.051.758.219.316.219.636 0 .957-.012.308-.047.609-.101.91l-.153.152c-.015.156-.05.305-.101.453a.22.22 0 0 1-.176.051.694.694 0 0 1-.023.254.8.8 0 0 0-.254.402.22.22 0 0 1-.176.051c.02.215-.082.309-.305.277-.129.09-.254.18-.379.278-.023-.016-.047-.035-.074-.051.164-.356.34-.711.531-1.059.074-.441.168-.879.278-1.312a20.59 20.59 0 0 1-.278-1.465c-.035-.031-.066-.066-.101-.102a4.175 4.175 0 0 0-.328-.906c.062.149.156.285.277.403.016.101.035.203.05.304a.941.941 0 0 1 .278.606 4.236 4.236 0 0 1-.074 2.472c-.188.18-.219.38-.102.606.114-.117.23-.235.352-.356.219-.441.453-.859.707-1.261.058-.391.082-.785.074-1.184l-.047-1.035a3.823 3.823 0 0 1-.305-.961Zm0 0" style="stroke:none;fill-rule:evenodd;fill:#00a2ea;fill-opacity:1"/>
  <use xlink:href="#hybrid_svg__be" mask="url(#hybrid_svg__bf)"/>
  <path d="M110.656 81.434c.082.058.16.125.227.203.133.308.277.613.43.906.058.332.16.652.304.96l.047 1.036c.008.398-.016.793-.074 1.184-.254.402-.488.82-.707 1.261-.121.121-.238.239-.352.356-.117-.227-.086-.426.102-.606.27-.816.297-1.644.074-2.472.106.043.164.125.176.25.035.574.035 1.144 0 1.718a2.966 2.966 0 0 0-.176.504c.016.051.035.102.05.153a.644.644 0 0 0 .227-.254c.235-.434.418-.89.555-1.363.035-.52.035-1.043 0-1.563a12.328 12.328 0 0 1-.3-1.113 1.063 1.063 0 0 1-.18-.2 7.93 7.93 0 0 1-.403-.96Zm0 0" style="stroke:none;fill-rule:evenodd;fill:#0093e4;fill-opacity:1"/>
  <use xlink:href="#hybrid_svg__bg" mask="url(#hybrid_svg__bh)"/>
  <use xlink:href="#hybrid_svg__bi" mask="url(#hybrid_svg__bj)"/>
  <use xlink:href="#hybrid_svg__bk" mask="url(#hybrid_svg__bl)"/>
  <use xlink:href="#hybrid_svg__bm" mask="url(#hybrid_svg__bn)"/>
  <use xlink:href="#hybrid_svg__bo" mask="url(#hybrid_svg__bp)"/>
  <use xlink:href="#hybrid_svg__bq" mask="url(#hybrid_svg__br)"/>
  <use xlink:href="#hybrid_svg__bs" mask="url(#hybrid_svg__bt)"/>
  <use xlink:href="#hybrid_svg__bu" mask="url(#hybrid_svg__bv)"/>
  <use xlink:href="#hybrid_svg__bw" mask="url(#hybrid_svg__bx)"/>
  <use xlink:href="#hybrid_svg__by" mask="url(#hybrid_svg__bz)"/>
  <use xlink:href="#hybrid_svg__bA" mask="url(#hybrid_svg__bB)"/>
  <use xlink:href="#hybrid_svg__bC" mask="url(#hybrid_svg__bD)"/>
  <use xlink:href="#hybrid_svg__bE" mask="url(#hybrid_svg__bF)"/>
</svg>
