<?xml version="1.0" encoding="UTF-8" ?>
<svg
	xmlns="http://www.w3.org/2000/svg"
	xmlns:xlink="http://www.w3.org/1999/xlink"
	width="1180px"
	height="240px"
	viewBox="0 0 1180 240"
	version="1.1"
>
<defs>
<filter
			id="alpha"
			filterUnits="objectBoundingBox"
			x="0%"
			y="0%"
			width="100%"
			height="100%"
		>
  <feColorMatrix
				type="matrix"
				in="SourceGraphic"
				values="0 0 0 0 1 0 0 0 0 1 0 0 0 0 1 0 0 0 1 0"
			/>
</filter>
<mask id="mask0">
  <g filter="url(#alpha)">
<rect
					x="0"
					y="0"
					width="1180"
					height="240"
					style="fill:rgb(0%,0%,0%);fill-opacity:0.984314;stroke:none;"
				/>
  </g>
</mask>
<clipPath id="clip1">
  <rect x="0" y="0" width="1180" height="240" />
</clipPath>
<g id="surface5" clip-path="url(#clip1)">
<path
				style=" stroke:none;fill-rule:evenodd;fill:rgb(4.313725%,3.921569%,67.843137%);fill-opacity:1;"
				d="M 109.5 6.5 C 110.832031 6.5 112.167969 6.5 113.5 6.5 C 101.941406 42.125 89.941406 77.625 77.5 113 C 79.800781 115.15625 82.46875 116.820312 85.5 118 C 95.34375 121.605469 104.84375 125.773438 114 130.5 C 114.59375 163.835938 114.925781 197.171875 115 230.5 C 114.519531 232.644531 113.1875 233.644531 111 233.5 C 106.003906 231.753906 101.167969 229.585938 96.5 227 C 71.832031 213 47.167969 199 22.5 185 C 19.132812 182.636719 16.964844 179.46875 16 175.5 C 15.832031 157.332031 15.667969 139.167969 15.5 121 C 15.351562 101.769531 15.851562 82.605469 17 63.5 C 23.535156 57.152344 30.703125 51.652344 38.5 47 C 62.195312 33.488281 85.863281 19.988281 109.5 6.5 Z M 109.5 6.5 "
			/>
</g>
<mask id="mask1">
  <g filter="url(#alpha)">
<rect
					x="0"
					y="0"
					width="1180"
					height="240"
					style="fill:rgb(0%,0%,0%);fill-opacity:0.980392;stroke:none;"
				/>
  </g>
</mask>
<clipPath id="clip2">
  <rect x="0" y="0" width="1180" height="240" />
</clipPath>
<g id="surface8" clip-path="url(#clip2)">
<path
				style=" stroke:none;fill-rule:evenodd;fill:rgb(3.137255%,67.058824%,97.254902%);fill-opacity:1;"
				d="M 129.5 6.5 C 132.605469 6.351562 135.605469 6.851562 138.5 8 C 166.035156 23.933594 193.703125 39.601562 221.5 55 C 224.53125 57.558594 226.699219 60.726562 228 64.5 C 228.667969 100.5 228.667969 136.5 228 172.5 C 224.878906 177.953125 220.714844 182.453125 215.5 186 C 189.296875 201.597656 162.964844 216.933594 136.5 232 C 134.65625 233.128906 132.65625 233.628906 130.5 233.5 C 141.652344 197.738281 153.652344 162.238281 166.5 127 C 156.074219 120.851562 145.074219 115.851562 133.5 112 C 131.507812 111.425781 130.007812 110.257812 129 108.5 C 128.175781 74.429688 128.339844 40.429688 129.5 6.5 Z M 129.5 6.5 "
			/>
</g>
<mask id="mask2">
  <g filter="url(#alpha)">
<rect
					x="0"
					y="0"
					width="1180"
					height="240"
					style="fill:rgb(0%,0%,0%);fill-opacity:0.964706;stroke:none;"
				/>
  </g>
</mask>
<clipPath id="clip3">
  <rect x="0" y="0" width="1180" height="240" />
</clipPath>
<g id="surface11" clip-path="url(#clip3)">
<path
				style=" stroke:none;fill-rule:evenodd;fill:rgb(2.745098%,67.45098%,97.254902%);fill-opacity:1;"
				d="M 781.5 74.5 C 798.234375 72.898438 811.734375 78.566406 822 91.5 C 824.683594 95.863281 826.519531 100.53125 827.5 105.5 C 822.488281 105.664062 817.488281 105.5 812.5 105 C 803.679688 87.835938 790.679688 83.503906 773.5 92 C 762.296875 102.351562 759.128906 114.851562 764 129.5 C 773.511719 146.414062 786.679688 150.25 803.5 141 C 807.277344 137.953125 809.941406 134.117188 811.5 129.5 C 816.792969 128.503906 822.125 128.171875 827.5 128.5 C 822.046875 147.769531 809.214844 158.101562 789 159.5 C 758.550781 156.71875 744.21875 140.050781 746 109.5 C 749.789062 89.546875 761.621094 77.878906 781.5 74.5 Z M 781.5 74.5 "
			/>
</g>
<mask id="mask3">
  <g filter="url(#alpha)">
<rect
					x="0"
					y="0"
					width="1180"
					height="240"
					style="fill:rgb(0%,0%,0%);fill-opacity:0.964706;stroke:none;"
				/>
  </g>
</mask>
<clipPath id="clip4">
  <rect x="0" y="0" width="1180" height="240" />
</clipPath>
<g id="surface14" clip-path="url(#clip4)">
<path
				style=" stroke:none;fill-rule:evenodd;fill:rgb(2.745098%,67.45098%,97.254902%);fill-opacity:1;"
				d="M 257.5 76.5 C 262.832031 76.5 268.167969 76.5 273.5 76.5 C 273.5 87.5 273.5 98.5 273.5 109.5 C 289.832031 109.5 306.167969 109.5 322.5 109.5 C 322.5 98.5 322.5 87.5 322.5 76.5 C 327.5 76.5 332.5 76.5 337.5 76.5 C 337.5 103.167969 337.5 129.832031 337.5 156.5 C 332.5 156.5 327.5 156.5 322.5 156.5 C 322.5 145.167969 322.5 133.832031 322.5 122.5 C 306.167969 122.5 289.832031 122.5 273.5 122.5 C 273.5 133.832031 273.5 145.167969 273.5 156.5 C 268.167969 156.5 262.832031 156.5 257.5 156.5 C 257.5 129.832031 257.5 103.167969 257.5 76.5 Z M 257.5 76.5 "
			/>
</g>
<mask id="mask4">
  <g filter="url(#alpha)">
<rect
					x="0"
					y="0"
					width="1180"
					height="240"
					style="fill:rgb(0%,0%,0%);fill-opacity:0.968627;stroke:none;"
				/>
  </g>
</mask>
<clipPath id="clip5">
  <rect x="0" y="0" width="1180" height="240" />
</clipPath>
<g id="surface17" clip-path="url(#clip5)">
<path
				style=" stroke:none;fill-rule:evenodd;fill:rgb(3.137255%,67.45098%,97.254902%);fill-opacity:1;"
				d="M 349.5 76.5 C 355.867188 76.171875 362.203125 76.503906 368.5 77.5 C 375.667969 89.167969 382.832031 100.832031 390 112.5 C 397.625 100.75 405.125 88.917969 412.5 77 C 418.527344 76.167969 424.527344 76.335938 430.5 77.5 C 419.667969 93.832031 408.832031 110.167969 398 126.5 C 397.5 136.492188 397.335938 146.492188 397.5 156.5 C 392.5 156.5 387.5 156.5 382.5 156.5 C 382.664062 146.492188 382.5 136.492188 382 126.5 C 370.523438 110.203125 359.691406 93.535156 349.5 76.5 Z M 349.5 76.5 "
			/>
</g>
<mask id="mask5">
  <g filter="url(#alpha)">
<rect
					x="0"
					y="0"
					width="1180"
					height="240"
					style="fill:rgb(0%,0%,0%);fill-opacity:0.968627;stroke:none;"
				/>
  </g>
</mask>
<clipPath id="clip6">
  <rect x="0" y="0" width="1180" height="240" />
</clipPath>
<g id="surface20" clip-path="url(#clip6)">
<path
				style=" stroke:none;fill-rule:evenodd;fill:rgb(2.745098%,67.45098%,97.254902%);fill-opacity:1;"
				d="M 442.5 76.5 C 457.503906 76.332031 472.503906 76.5 487.5 77 C 508.421875 80.707031 514.753906 92.207031 506.5 111.5 C 504.683594 112.816406 503.015625 114.316406 501.5 116 C 514.683594 122.890625 517.851562 133.058594 511 146.5 C 507.394531 150.722656 502.894531 153.554688 497.5 155 C 479.222656 156.445312 460.890625 156.945312 442.5 156.5 C 442.5 129.832031 442.5 103.167969 442.5 76.5 Z M 457.5 89.5 C 467.171875 89.332031 476.839844 89.5 486.5 90 C 493.910156 93.058594 495.910156 98.222656 492.5 105.5 C 490.972656 106.859375 489.304688 108.027344 487.5 109 C 477.546875 110.296875 467.546875 110.796875 457.5 110.5 C 457.5 103.5 457.5 96.5 457.5 89.5 Z M 457.5 121.5 C 468.539062 121.214844 479.539062 121.714844 490.5 123 C 495.117188 125.226562 497.78125 128.894531 498.5 134 C 497.667969 138.164062 495.335938 141.164062 491.5 143 C 480.222656 144.382812 468.886719 144.882812 457.5 144.5 C 457.5 136.832031 457.5 129.167969 457.5 121.5 Z M 457.5 121.5 "
			/>
</g>
<mask id="mask6">
  <g filter="url(#alpha)">
<rect
					x="0"
					y="0"
					width="1180"
					height="240"
					style="fill:rgb(0%,0%,0%);fill-opacity:0.964706;stroke:none;"
				/>
  </g>
</mask>
<clipPath id="clip7">
  <rect x="0" y="0" width="1180" height="240" />
</clipPath>
<g id="surface23" clip-path="url(#clip7)">
<path
				style=" stroke:none;fill-rule:evenodd;fill:rgb(3.529412%,67.843137%,97.254902%);fill-opacity:1;"
				d="M 529.5 76.5 C 545.171875 76.332031 560.835938 76.5 576.5 77 C 598.398438 81.296875 605.230469 93.796875 597 114.5 C 592.910156 120.132812 587.410156 123.632812 580.5 125 C 588.882812 135.046875 596.882812 145.382812 604.5 156 C 598.167969 156.667969 591.832031 156.667969 585.5 156 C 578.167969 146 570.832031 136 563.5 126 C 557.507812 125.5 551.507812 125.335938 545.5 125.5 C 545.5 135.832031 545.5 146.167969 545.5 156.5 C 540.167969 156.5 534.832031 156.5 529.5 156.5 C 529.5 129.832031 529.5 103.167969 529.5 76.5 Z M 544.5 90.5 C 554.65625 89.339844 564.992188 89.175781 575.5 90 C 583.863281 93.230469 586.363281 99.0625 583 107.5 C 581.363281 109.808594 579.195312 111.308594 576.5 112 C 565.898438 113.402344 555.230469 113.902344 544.5 113.5 C 545.269531 105.601562 545.269531 97.9375 544.5 90.5 Z M 544.5 90.5 "
			/>
</g>
<mask id="mask7">
  <g filter="url(#alpha)">
<rect
					x="0"
					y="0"
					width="1180"
					height="240"
					style="fill:rgb(0%,0%,0%);fill-opacity:0.945098;stroke:none;"
				/>
  </g>
</mask>
<clipPath id="clip8">
  <rect x="0" y="0" width="1180" height="240" />
</clipPath>
<g id="surface26" clip-path="url(#clip8)">
<path
				style=" stroke:none;fill-rule:evenodd;fill:rgb(2.745098%,67.058824%,97.254902%);fill-opacity:1;"
				d="M 618.5 76.5 C 623.832031 76.5 629.167969 76.5 634.5 76.5 C 634.5 103.167969 634.5 129.832031 634.5 156.5 C 629.167969 156.5 623.832031 156.5 618.5 156.5 C 618.5 129.832031 618.5 103.167969 618.5 76.5 Z M 618.5 76.5 "
			/>
</g>
<mask id="mask8">
  <g filter="url(#alpha)">
<rect
					x="0"
					y="0"
					width="1180"
					height="240"
					style="fill:rgb(0%,0%,0%);fill-opacity:0.960784;stroke:none;"
				/>
  </g>
</mask>
<clipPath id="clip9">
  <rect x="0" y="0" width="1180" height="240" />
</clipPath>
<g id="surface29" clip-path="url(#clip9)">
<path
				style=" stroke:none;fill-rule:evenodd;fill:rgb(2.745098%,67.45098%,97.254902%);fill-opacity:1;"
				d="M 654.5 76.5 C 668.503906 76.332031 682.503906 76.5 696.5 77 C 720.160156 79.992188 732.828125 93.324219 734.5 117 C 734.125 133.765625 726.460938 145.765625 711.5 153 C 707.941406 154.40625 704.277344 155.40625 700.5 156 C 685.171875 156.5 669.835938 156.667969 654.5 156.5 C 654.5 129.832031 654.5 103.167969 654.5 76.5 Z M 670.5 89.5 C 679.171875 89.332031 687.839844 89.5 696.5 90 C 714.847656 95.515625 721.679688 107.679688 717 126.5 C 712.734375 137.054688 704.902344 142.890625 693.5 144 C 685.839844 144.5 678.175781 144.664062 670.5 144.5 C 670.5 126.167969 670.5 107.832031 670.5 89.5 Z M 670.5 89.5 "
			/>
</g>
<mask id="mask9">
  <g filter="url(#alpha)">
<rect
					x="0"
					y="0"
					width="1180"
					height="240"
					style="fill:rgb(0%,0%,0%);fill-opacity:0.960784;stroke:none;"
				/>
  </g>
</mask>
<clipPath id="clip10">
  <rect x="0" y="0" width="1180" height="240" />
</clipPath>
<g id="surface32" clip-path="url(#clip10)">
<path
				style=" stroke:none;fill-rule:evenodd;fill:rgb(2.745098%,67.058824%,97.254902%);fill-opacity:1;"
				d="M 841.5 76.5 C 846.832031 76.5 852.167969 76.5 857.5 76.5 C 857.5 87.5 857.5 98.5 857.5 109.5 C 873.832031 109.5 890.167969 109.5 906.5 109.5 C 906.5 98.5 906.5 87.5 906.5 76.5 C 911.5 76.5 916.5 76.5 921.5 76.5 C 921.5 103.167969 921.5 129.832031 921.5 156.5 C 916.5 156.5 911.5 156.5 906.5 156.5 C 906.5 145.167969 906.5 133.832031 906.5 122.5 C 890.167969 122.5 873.832031 122.5 857.5 122.5 C 857.5 133.832031 857.5 145.167969 857.5 156.5 C 852.167969 156.5 846.832031 156.5 841.5 156.5 C 841.5 129.832031 841.5 103.167969 841.5 76.5 Z M 841.5 76.5 "
			/>
</g>
<mask id="mask10">
  <g filter="url(#alpha)">
<rect
					x="0"
					y="0"
					width="1180"
					height="240"
					style="fill:rgb(0%,0%,0%);fill-opacity:0.960784;stroke:none;"
				/>
  </g>
</mask>
<clipPath id="clip11">
  <rect x="0" y="0" width="1180" height="240" />
</clipPath>
<g id="surface35" clip-path="url(#clip11)">
<path
				style=" stroke:none;fill-rule:evenodd;fill:rgb(3.137255%,67.45098%,97.254902%);fill-opacity:1;"
				d="M 971.5 76.5 C 976.542969 76.171875 981.542969 76.507812 986.5 77.5 C 999.3125 103.621094 1011.980469 129.789062 1024.5 156 C 1018.46875 156.828125 1012.46875 156.664062 1006.5 155.5 C 1004.300781 150.257812 1001.960938 145.09375 999.5 140 C 985.171875 139.5 970.835938 139.332031 956.5 139.5 C 954.589844 145.15625 952.257812 150.65625 949.5 156 C 944.136719 156.828125 938.800781 156.664062 933.5 155.5 C 945.90625 129.019531 958.574219 102.683594 971.5 76.5 Z M 977.5 94.5 C 978.375 94.367188 979.042969 94.703125 979.5 95.5 C 984.167969 105.832031 988.832031 116.167969 993.5 126.5 C 983.183594 127.664062 972.847656 127.832031 962.5 127 C 967.914062 116.339844 972.914062 105.507812 977.5 94.5 Z M 977.5 94.5 "
			/>
</g>
<mask id="mask11">
  <g filter="url(#alpha)">
<rect
					x="0"
					y="0"
					width="1180"
					height="240"
					style="fill:rgb(0%,0%,0%);fill-opacity:0.972549;stroke:none;"
				/>
  </g>
</mask>
<clipPath id="clip12">
  <rect x="0" y="0" width="1180" height="240" />
</clipPath>
<g id="surface38" clip-path="url(#clip12)">
<path
				style=" stroke:none;fill-rule:evenodd;fill:rgb(2.745098%,67.058824%,96.862745%);fill-opacity:1;"
				d="M 1036.5 76.5 C 1041.5 76.5 1046.5 76.5 1051.5 76.5 C 1051.5 103.167969 1051.5 129.832031 1051.5 156.5 C 1046.5 156.5 1041.5 156.5 1036.5 156.5 C 1036.5 129.832031 1036.5 103.167969 1036.5 76.5 Z M 1036.5 76.5 "
			/>
</g>
<mask id="mask12">
  <g filter="url(#alpha)">
<rect
					x="0"
					y="0"
					width="1180"
					height="240"
					style="fill:rgb(0%,0%,0%);fill-opacity:0.972549;stroke:none;"
				/>
  </g>
</mask>
<clipPath id="clip13">
  <rect x="0" y="0" width="1180" height="240" />
</clipPath>
<g id="surface41" clip-path="url(#clip13)">
<path
				style=" stroke:none;fill-rule:evenodd;fill:rgb(2.745098%,67.45098%,97.254902%);fill-opacity:1;"
				d="M 1072.5 76.5 C 1078.511719 76.332031 1084.511719 76.5 1090.5 77 C 1105.300781 96.769531 1120.46875 116.269531 1136 135.5 C 1136.640625 116.023438 1136.96875 96.691406 1137 77.5 C 1142.070312 76.527344 1147.238281 76.195312 1152.5 76.5 C 1152.5 103.167969 1152.5 129.832031 1152.5 156.5 C 1146.488281 156.664062 1140.488281 156.5 1134.5 156 C 1118.640625 136.4375 1103.140625 116.605469 1088 96.5 C 1087.5 116.496094 1087.328125 136.496094 1087.5 156.5 C 1082.5 156.5 1077.5 156.5 1072.5 156.5 C 1072.5 129.832031 1072.5 103.167969 1072.5 76.5 Z M 1072.5 76.5 "
			/>
</g>
</defs>
<g id="surface1">
<use xlink:href="#surface5" mask="url(#mask0)" />
<use xlink:href="#surface8" mask="url(#mask1)" />
<use xlink:href="#surface11" mask="url(#mask2)" />
<use xlink:href="#surface14" mask="url(#mask3)" />
<use xlink:href="#surface17" mask="url(#mask4)" />
<use xlink:href="#surface20" mask="url(#mask5)" />
<use xlink:href="#surface23" mask="url(#mask6)" />
<use xlink:href="#surface26" mask="url(#mask7)" />
<use xlink:href="#surface29" mask="url(#mask8)" />
<use xlink:href="#surface32" mask="url(#mask9)" />
<use xlink:href="#surface35" mask="url(#mask10)" />
<use xlink:href="#surface38" mask="url(#mask11)" />
<use xlink:href="#surface41" mask="url(#mask12)" />
</g>
</svg>
