<?xml version="1.0" encoding="UTF-8" ?>
<svg
	xmlns="http://www.w3.org/2000/svg"
	xmlns:xlink="http://www.w3.org/1999/xlink"
	width="30px"
	height="30px"
	viewBox="0 0 30 30"
	version="1.1"
>
<g id="surface1">
<path
			style=" stroke:none;fill-rule:evenodd;fill:rgb(4.313725%,3.921569%,67.843137%);fill-opacity:1;"
			d="M 13.769531 0.871094 C 13.871094 0.871094 13.96875 0.871094 14.070312 0.871094 C 14.035156 1.242188 13.945312 1.601562 13.800781 1.949219 C 12.339844 6.078125 10.910156 10.21875 9.511719 14.371094 C 9.515625 14.425781 9.535156 14.476562 9.570312 14.519531 C 11.050781 15.210938 12.550781 15.847656 14.070312 16.441406 C 14.128906 16.523438 14.175781 16.613281 14.21875 16.710938 C 14.253906 20.851562 14.277344 24.988281 14.28125 29.128906 C 14.265625 29.363281 14.144531 29.503906 13.921875 29.550781 C 13.613281 29.488281 13.320312 29.378906 13.050781 29.21875 C 9.609375 27.28125 6.171875 25.339844 2.730469 23.398438 C 2.230469 23.03125 1.921875 22.539062 1.800781 21.929688 C 1.761719 17.511719 1.761719 13.089844 1.800781 8.671875 C 2.035156 8.132812 2.386719 7.683594 2.851562 7.320312 C 3.378906 6.945312 3.917969 6.585938 4.46875 6.238281 C 7.574219 4.449219 10.671875 2.660156 13.769531 0.871094 Z M 13.769531 0.871094 "
		/>
<path
			style=" stroke:none;fill-rule:evenodd;fill:rgb(3.137255%,67.058824%,97.254902%);fill-opacity:1;"
			d="M 16.351562 0.871094 C 16.714844 0.902344 17.054688 1.011719 17.371094 1.199219 C 20.699219 3.09375 24.039062 4.976562 27.390625 6.839844 C 28.050781 7.203125 28.460938 7.753906 28.621094 8.488281 C 28.660156 12.910156 28.660156 17.328125 28.621094 21.75 C 28.257812 22.453125 27.75 23.019531 27.089844 23.460938 C 23.648438 25.539062 20.167969 27.5625 16.648438 29.519531 C 16.550781 29.550781 16.453125 29.558594 16.351562 29.550781 C 16.382812 29.175781 16.472656 28.816406 16.621094 28.46875 C 18.078125 24.339844 19.511719 20.199219 20.910156 16.050781 C 20.902344 15.992188 20.882812 15.945312 20.851562 15.898438 C 19.371094 15.210938 17.871094 14.570312 16.351562 13.980469 C 16.292969 13.894531 16.242188 13.804688 16.199219 13.710938 C 16.164062 9.570312 16.144531 5.429688 16.140625 1.289062 C 16.148438 1.117188 16.21875 0.976562 16.351562 0.871094 Z M 16.351562 0.871094 "
		/>
</g>
</svg>
